<svg xmlns="http://www.w3.org/2000/svg" width="230" height="47" fill="none" viewBox="0 0 230 47">
  <path fill="#fff" d="M42.64 32.303v-.775c0-3.36-1.291-6.202-3.359-8.528 2.068-2.067 3.36-5.169 3.36-8.528v-1.034A12.146 12.146 0 0 0 30.495 1.292H23A21.708 21.708 0 0 0 7.817 38.26 21.7 21.7 0 0 0 23 44.708h7.753c6.46 0 11.888-5.427 11.888-12.146zM30.496 9.045c2.584 0 4.651 1.809 4.651 4.393v1.034a4.652 4.652 0 0 1-9.045 1.809L23.26 9.045zM9.045 22.742c0-5.169 2.584-9.82 6.978-12.147l3.36 8.529c.516 1.55 1.291 2.584 2.584 3.876-1.293 1.034-2.068 2.584-2.585 3.876l-3.36 8.27A14.21 14.21 0 0 1 9.046 23zm14.214 14.73 2.842-7.753a4.652 4.652 0 0 1 9.045 2.067v1.034a4.63 4.63 0 0 1-4.651 4.652z"/>
  <path fill="#f6aa1c" d="M36.438 23.258h-1.034q-.774 0-.775-.775a.775.775 0 0 1 .775-.775h1.034l.517.775c0 .517-.258.775-.517.775m4.393 8.787c0-.517-.517-.775-.775-.775h-1.034c-.258 0-.517.258-.517.775 0 .258 0 .775.517.775h1.034zm-18.865 8.528v-1.034c0-.258-.258-.775-.775-.775l-.517.775v1.034c0 .258 0 .517.517.517s.775 0 .775-.517m2.584-13.438a.775.775 0 0 0 0-1.034c-.258-.258-.775-.258-1.033 0l-.517.775a.78.78 0 0 0 0 .776c0 .516.517.516.775 0zm13.697 9.303a.77.77 0 0 0 0-.775c-.258-.517-.775-.517-1.034 0l-.775.517a.775.775 0 0 0 0 1.033c.258.259.775.259 1.034 0zm-9.045 5.427.517-.517a.775.775 0 0 0 0-1.033h-.775l-.775.516a.775.775 0 0 0 0 1.034c.258.258.775.258 1.033 0m11.63-28.685c0-.517-.517-.776-.776-.776h-1.034c-.258 0-.517.259-.517.776 0 .258 0 .517.517.517h1.034c.259 0 .775 0 .775-.517m-16.798 3.618c0-.259-.259-.517-.776-.517h-.775c-.517 0-.775 0-.775.517q0 .775.775.775h.775q.776 0 .776-.775M34.888 5.944v-.776c0-.516 0-.775-.517-.775q-.776 0-.776.775v.776q0 .775.776.775c.258 0 .517-.258.517-.775M27.91 21.449v-.775c0-.517 0-.775-.517-.775q-.775 0-.775.775v1.034c0 .258.258.517.775.517.259 0 .517 0 .517-.517zm11.37-3.1-.516-.776c-.259-.259-.775-.259-1.034 0a.775.775 0 0 0 0 1.034l.517.517c.258.516.775.516 1.034 0a.78.78 0 0 0 0-.776M28.17 4.651l-.517-.517c-.259-.259-.776-.259-1.034 0a.775.775 0 0 0 0 1.033l.517.517c.258.259.775.259 1.034 0a.775.775 0 0 0 0-1.033"/>
  <path fill="#fff" fill-rule="evenodd" stroke="#bc3908" stroke-width="2.584" d="M72.36 32.562c1.033.775 2.584 1.292 3.876 1.292v10.078a19.38 19.38 0 0 1-13.697-5.943 16 16 0 0 1-3.876-5.944H57.37v9.303H47.034l-.517-36.18c1.292-.775 3.101-1.292 5.168-1.808l6.978-.517c3.876 0 6.977.517 9.82 1.809 2.584 1.292 4.652 2.584 5.944 4.91a13.9 13.9 0 0 1 2.067 7.236 13.95 13.95 0 0 1-6.977 12.404c.517 1.292 1.55 2.584 2.584 3.101zM57.112 22.225h2.068c1.034 0 2.326 0 3.36-.517 1.033-.259 1.808-1.034 2.584-1.81a4.65 4.65 0 0 0 .258-5.168 5.17 5.17 0 0 0-4.652-2.584 9.3 9.3 0 0 0-3.618 1.034zm49.101 9.045v10.078l-27.393.517L77.528 3.36l27.393-.776.776 10.337H88.124v3.877h15.247l.517 10.078h-14.73l.258 5.169 17.314-.775zm23.259-18.09v28.685l-10.337.517V13.438h-11.113l-.775-10.078 33.079-.776.775 10.337h-11.888zm42.382 0-14.989 19.123h14.472v10.079h-29.202v-9.82l14.73-19.64h-13.438V3.36h28.427zm29.977 18.09v10.078l-27.651.517-1.034-38.505 27.393-.776.776 10.337h-17.832l.259 3.877h14.73l.517 10.078h-14.472v5.169zm25.585.775v10.079h-24.551V3.36h10.337v28.427h14.214z" clip-rule="evenodd"/>
</svg>
