<svg xmlns="http://www.w3.org/2000/svg" viewBox="0 0 67 67"><title>Group 9</title><path d="M33.5 23.2c4.3 0 7.8-3.5 7.8-7.8s-3.5-7.8-7.8-7.8-7.8 3.5-7.8 7.8 3.5 7.8 7.8 7.8zm0-13.9c3.3 0 6.1 2.7 6.1 6.1s-2.7 6.1-6.1 6.1-6.1-2.7-6.1-6.1 2.8-6.1 6.1-6.1zM23.2 50.4c.1-.3.1-.6 0-.9l-7-13.9c-.3-.5-1.1-.5-1.4 0l-7 13.9c-.1.3-.1.6 0 .9.1.3.4.4.7.4h14c.3 0 .6-.2.7-.4zM9.8 49.1l5.7-11.3 5.7 11.3H9.8zm49.5-13c0-.5-.4-.9-.9-.9H44.6c-.5 0-.9.4-.9.9V50c0 .5.4.9.9.9h13.9c.5 0 .9-.4.9-.9V36.1zm-1.7 13H45.4V36.9h12.1v12.2z"/><path d="M33.9 54c-3.9 0-7.7-1-10.9-3l-.9 1.3c3.5 2.1 7.6 3.3 11.8 3.3 4.4 0 8.6-1.2 12.2-3.5l-.9-1.3c-3.4 2.1-7.3 3.2-11.3 3.2zm17.8-21.2l1.6-.1C53 25.1 48.7 18.2 42 14.8l-.7 1.4c6.2 3.2 10.2 9.5 10.4 16.6zm-38.8 2.3c0-.5-.1-1-.1-1.5 0-7.4 4-14 10.4-17.3l-.7-1.4c-7 3.5-11.3 10.7-11.3 18.7 0 .6 0 1.1.1 1.7l1.6-.2zm8.8-22.4l1.2.9 2.5-1.9c.3-.3.3-.7 0-.9l-2.5-1.9-1.2.9 1.1.8h-5.5v1.3h5.5l-1.1.8zm34 14.1c.2 0 .3-.1.5-.2l1.9-2.5-.9-1.2-.8 1.1v-5.5h-1.3V24l-.8-1.1-1 1.1 1.9 2.5c.2.2.3.3.5.3zM14.4 52.2l-1.9 2.5.9 1.2.8-1.1v5.5h1.3v-5.5l.8 1.1.9-1.2-1.9-2.5c-.2-.3-.6-.3-.9 0zM41.3 33c0-2.6-1.4-5-3.8-6.2l-.8 1.4c1.8 1 2.9 2.9 2.9 4.9 0 2.6-1.9 4.8-4.4 5.4l1-1.9-1.5-.7-1.7 3.2c-.2.3-.1.7.2.9l2.5 2.4 1.2-1.1-1.4-1.3c3.3-.8 5.8-3.6 5.8-7zm-11.8 7l.8-1.4c-1.8-1-2.9-2.9-2.9-4.9 0-2.6 1.9-4.8 4.4-5.4l-1 1.9 1.5.7 1.7-3.2c.2-.3.1-.7-.2-.9l-2.5-2.4-1.2 1.1 1.3 1.2c-3.3.8-5.8 3.6-5.8 7 .1 2.6 1.5 5 3.9 6.3z"/></svg>