<svg xmlns="http://www.w3.org/2000/svg" viewBox="0 0 63 63"><title>Group 8</title><path d="M54.4 26.6c.6-.6.6-1.6 0-2.3L52 21.9c-.5-.5-1.4-.6-2-.2l-5.1 3.4 3.4-5.1c.4-.6.3-1.5-.2-2l-5.2-5.2c-.5-.5-1.2-.6-1.8-.3l-.9.5.4-1c.3-.6.1-1.3-.3-1.8l-1.6-1.6c-.6-.6-1.6-.6-2.3 0L23.7 21.3l18 18 12.7-12.7zm-32.7-2.9l-3.6 3.6c-.3.3-.5.7-.5 1.1 0 .4.2.8.5 1.1l3.4 3.4c.7.7 1 1.6.9 2.5-.1.9-.6 1.7-1.4 2.2C11 44 10.1 45 9.8 45.3c-2.2 2.2-2.2 5.8 0 8s5.8 2.2 8 0C18 52.9 19 52 25.4 42c.5-.8 1.3-1.3 2.2-1.4.9-.1 1.8.2 2.5.9l3.4 3.4c.6.6 1.6.6 2.2 0l3.6-3.6-17.6-17.6zm-6.3 27c-.9.9-2.3.9-3.1 0-.9-.9-.9-2.3 0-3.1.9-.9 2.3-.9 3.1 0 .9.9.9 2.3 0 3.1z"/></svg>