<svg xmlns="http://www.w3.org/2000/svg" viewBox="0 0 67 67"><title>Group 8</title><path d="M63.9 31.9c-.5 0-.9.3-.9.8-.3 3-1.6 5.7-3.7 7.8L48.7 51.2c-.3.3-.6.4-1 .4s-.7-.1-1-.4c-.3-.3-.4-.6-.4-1s.1-.7.4-1l6.8-6.9c.3-.3.3-.9 0-1.2-.3-.3-.9-.3-1.2 0l-9.9 10c-.5.5-1.4.5-1.9 0s-.5-1.4 0-1.9l9.3-9.4c.3-.3.3-.9 0-1.2-.3-.3-.9-.3-1.2 0L37 50.5c-.3.3-.6.4-1 .4s-.7-.1-1-.4c-.3-.3-.4-.6-.4-1s.1-.7.4-1l4.4-4.4 5.7-2.5c.2-.1.4-.3.5-.5.1-.2.1-.5 0-.7l-.8-1.7 2.5-2.5c.3-.3.3-.9 0-1.2-.3-.3-.9-.3-1.2 0l-2 2.1c-.4-.9-.9-1.7-1.3-2.5l4-4c.9 1.8 2.4 3.2 4.3 4.1 1.2.5 2.4.8 3.6.8 1.1 0 2.2-.2 3.2-.6.4-.2.7-.7.5-1.1s-.7-.7-1.1-.5c-3.7 1.4-7.9-.4-9.3-4.2-.2-.4-.6-.8-1-.7h-6.1c-.8 0-1.5-.7-1.5-1.5s.7-1.5 1.5-1.5h14.5c.5 0 .8-.4.8-.9s-.4-.9-.8-.9H40.8c-1.8 0-3.2 1.5-3.2 3.2 0 1.8 1.4 3.2 3.2 3.2h4l-3.1 3.1c-2.2-3.2-5-6-8.3-8.1l-1.2-.8V24c0-.9-.4-1.8-1-2.5l-3.6-3.7c-1.6-1.6-3.6-2.9-5.8-3.5-3.6-1.1-7.4-.8-10.8.9l-.6.3c-.4.2-.6.7-.4 1.1.2.4.7.6 1.1.4l.6-.3c3-1.5 6.3-1.8 9.5-.8 1.9.6 3.7 1.7 5.1 3.1l3.6 3.7c.3.3.5.8.5 1.3s-.2.9-.5 1.3c-.7.7-1.8.7-2.5 0l-3.8-3.9c-.3-.3-.9-.3-1.2 0l-1.8 1.8c-1.1 1.1-2.6 1.7-4.1 1.7s-3-.6-4.1-1.7c-.3-.3-.9-.3-1.2 0-.3.3-.3.9 0 1.2 1.4 1.4 3.3 2.2 5.3 2.2s3.9-.8 5.3-2.2l1.2-1.2 1.2 1.2-1.9 2.1c-.4-.2-.8-.3-1.3-.3-.8 0-1.6.3-2.1.9-.4.4-.6.8-.7 1.2-1.2-.7-2.7-.6-3.7.4-.4.4-.6.8-.7 1.2-1.2-.7-2.7-.6-3.7.4-.3.3-.6.7-.7 1.2L3.7 26c-.3-.3-.9-.3-1.2 0-.3.3-.3.9 0 1.2l7.5 7.6 2.9 3c.6.6 1.3.9 2.1.9s1.6-.3 2.1-.9c.4-.4.6-.8.7-1.2.5.3 1 .5 1.6.5.8 0 1.6-.3 2.1-.9.4-.4.6-.8.7-1.2.5.3 1 .5 1.6.5.8 0 1.6-.3 2.1-.9.5-.5.8-1.2.9-1.9.5.3.9.7 1.3 1 1 .8 1.9 1.6 2.7 2.4 1.3 1.3 2.5 2.8 3.5 4.4l-1.9 1.9c-.6.6-.9 1.3-.9 2.2 0 .8.3 1.6.9 2.2.3.3.7.6 1.2.7-.3.5-.6 1.2-.6 2s.3 1.6.9 2.2c.6.6 1.3.9 2.2.9.8 0 1.6-.3 2.2-.9l.5-.5c.1.4.4.8.7 1.2.6.6 1.4.9 2.2.9s1.6-.3 2.2-.9l1.2-1.2c.1.4.4.8.7 1.2.6.6 1.3.9 2.2.9s1.6-.3 2.2-.9l10.6-10.7c2.4-2.4 3.8-5.5 4.2-8.9-.3-.4-.6-.9-1.1-.9zM16 36.6c-.2.3-.6.4-.9.4-.4 0-.7-.1-.9-.4l-2.9-3c-.5-.5-.5-1.4 0-1.9.3-.3.6-.4.9-.4s.7.1.9.4l2.9 3c.2.3.4.6.4.9 0 .4-.1.7-.4 1zm4.5-1.7c-.3.3-.6.4-.9.4-.4 0-.7-.1-.9-.4l-2.9-3c-.5-.5-.5-1.4 0-1.9.3-.3.6-.4.9-.4.3 0 .7.1.9.4l2.9 3c.5.5.5 1.4 0 1.9zm4.5-1.6c-.5.5-1.3.4-1.9-.1l-2.9-2.9c-.5-.5-.5-1.4 0-1.9.2-.2.6-.4.9-.4-.1.1-.2.3-.2.4-.1.4.1.8.5.9l1.5.7c.5.2 1 .5 1.6.8.2.1.4.2.5.4.3.3.4.6.4 1 0 .5-.2.8-.4 1.1zm4.5-1.1c-1.2-1-2.5-1.8-3.8-2.6-.7-.4-1.4-.7-2.1-1.1l-.5-.2 2.5-2.6.8.8c.7.7 1.6 1 2.4 1s1.8-.3 2.4-1c.2-.2.3-.4.5-.6l.8.5c4.5 3 8.1 7.1 10.3 12.1l.8 1.9-5.6 2.5c-1.4-3-3.3-5.8-5.7-8.2-.8-.8-1.8-1.7-2.8-2.5zm5.4 13.6c-.4 0-.7-.1-1-.4-.3-.3-.4-.6-.4-1s.1-.7.4-1l1.6-1.6c.5.8.9 1.7 1.3 2.6l-1 1c-.2.3-.6.4-.9.4z"/></svg>