<svg xmlns="http://www.w3.org/2000/svg" width="1048.226" height="824.341" preserveAspectRatio="none" viewBox="9.359 9.735 507.793 392.943">
  <path fill="none" stroke="#1e1e1e" stroke-linecap="round" stroke-width="4" d="M43.208 37.048c100.53 2.46 198.75 4.77 445.95 0m-445.95 0c144.87 2.4 289.92 2.63 445.95 0m0 0c5.35 2.68 9.26 4.8 10.4 10.4m-10.4-10.4c5.83 3.07 7.08 4.68 10.4 10.4m0 0c.88 7.36-2.7 10.3 0 20.81m0-20.81c.87 8.36-.38 17.54 0 20.81m0 0c-2.01 3.97-2.91 13.47-10.4 10.4m10.4-10.4c3.52 10.02-7.28 8.42-10.4 10.4m0 0c-92.07-1.67-181.7.82-445.95 0m445.95 0c-144.22-3.9-287.54-4.13-445.95 0m0 0c-7.74-.28-13.07-1.33-10.4-10.4m10.4 10.4c-10.25 1.4-12.26-1.47-10.4-10.4m0 0c.13-11.17.97-16.86 0-20.81m0 20.81c-1.34-7.4.82-11.73 0-20.81m0 0c-.8-7.63 5.83-10.74 10.4-10.4m-10.4 10.4c2.59-4.57 6.93-14.94 10.4-10.4"/>
  <path fill="none" stroke="#ccc" stroke-linecap="round" stroke-width="2" d="M42 10c97.02 5.85 192.9 4.05 440.11 0M42 10c97.09 2.54 193.07 1.97 440.11 0m0 0c17.65-.56 32.34 12.44 32 32m-32-32c21.01-2.62 28.67 14.67 32 32m0 0c3.61 68.12 4.48 132.57 0 328.17m0-328.17c-1 102.02-2.81 204.17 0 328.17m0 0c2.57 22.28-13.42 31.4-32 32m32-32c-2.92 21.12-11.77 27.72-32 32m0 0c-150.1-1.08-301.41-1.29-440.11 0m440.11 0c-154.04-.73-307.71-.6-440.11 0m0 0c-22.71 3.61-29.77-12.5-32-32m32 32c-25.41-.19-34.42-7.26-32-32m0 0C11.85 253.68 12.66 142.73 10 42m0 328.17C9.03 299.83 9.27 232 10 42m0 0c2.43-18.18 11.03-30.76 32-32M10 42c.87-18.46 11.38-27.47 32-32"/>
  <g fill="none" stroke="#ccc" stroke-linecap="round" stroke-width="4">
    <path d="M255.468 146.673c.05 6.27.76 30.91.66 36.73m1.21-37.83c-.03 6.02-1.19 29.96-1.78 36.09"/>
    <path d="M250.418 165.503c2.48 2.94 1.16 9.38 4.11 17.27m-3.8-17.67c1.22 5.19 3.44 9.69 5.41 16.72"/>
    <path d="M262.668 166.333c-.91 2.65-5.62 8.85-8.14 16.44m8.45-16.84c-2.41 5.01-3.81 9.27-6.84 15.89"/>
  </g>
  <path fill="none" stroke="#1e1e1e" stroke-linecap="round" stroke-width="4" d="M43.8 89.928c101.73-3.61 200.36-1.83 445.95 0m-445.95 0c94.75 1.15 187.94 1.01 445.95 0m0 0c9.53-.27 12.87 6.82 10.4 10.4m-10.4-10.4c3.13-2.52 8.6 1.06 10.4 10.4m0 0c1.81 3.99 3.11 12.32 0 20.81m0-20.81c1.37 8.66-1.21 17.74 0 20.81m0 0c-.53 3.54.2 9.32-10.4 10.4m10.4-10.4c2.58 10.32-4.87 10.56-10.4 10.4m0 0c-138.99-.75-277.5-1.98-445.95 0m445.95 0c-88.91 1.06-178.81 1.16-445.95 0m0 0c-3.12-3.77-10.84-7.08-10.4-10.4m10.4 10.4c-8.82.22-12.93-5.63-10.4-10.4m0 0c-3.14-8.2-1.96-8.34 0-20.81m0 20.81c.39-4.52.36-13.46 0-20.81m0 0c-3.77-9.9.6-8.01 10.4-10.4m-10.4 10.4c-2.01-8.67 2.15-8.99 10.4-10.4"/>
  <path fill="none" stroke="#1e1e1e" stroke-linecap="round" stroke-width="4" d="M44.631 198.939c53.08 3.31 106.74.54 194.09 0m-194.09 0c67.18-4.69 129.95-3.56 194.09 0m0 0c10.59.07 12.92 6.92 10.4 10.4m-10.4-10.4c6.58.31 6.41 4.27 10.4 10.4m0 0c-2.46 9.24-3.17 12.5 0 20.81m0-20.81c-1.8 6.39 1.53 15.94 0 20.81m0 0c1.61 5.14-6.46 6.71-10.4 10.4m10.4-10.4c-1.2 9.1-5.14 9.55-10.4 10.4m0 0c-50.06 1.99-99.29 6.97-194.09 0m194.09 0c-70.34-3.31-144.01-1.22-194.09 0m0 0c-8.9 3.3-12.65.22-10.4-10.4m10.4 10.4c-7.33-.63-6.94-2.63-10.4-10.4m0 0c-2.73-7-3.72-7.81 0-20.81m0 20.81c-.14-6.77-1.77-9.8 0-20.81m0 0c2.75-10.55 6.34-7.67 10.4-10.4m-10.4 10.4c2.73-4.47 2.37-12.51 10.4-10.4"/>
  <path fill="none" stroke="#1e1e1e" stroke-linecap="round" stroke-width="4" d="M276.48 196.477c82.06-3.87 163.02-2.44 208.97 0m-208.97 0c49.94 1.05 101.43.65 208.97 0m0 0c3.36 3.41 9.75-.4 10.4 10.4m-10.4-10.4c6.71 1.43 7.96 4.67 10.4 10.4m0 0c-2.98 8.92-.77 13.4 0 20.81m0-20.81c1.42 4.19-.9 10.75 0 20.81m0 0c-1.32 4.86-1.93 10.27-10.4 10.4m10.4-10.4c2.38 6.86-2.48 14.83-10.4 10.4m0 0c-68.36-5.26-140.96-2.99-208.97 0m208.97 0c-67.02 4.36-134.88 1.14-208.97 0m0 0c-9.17 1.18-11.76-2-10.4-10.4m10.4 10.4c-8.1-3.16-7.74-6.56-10.4-10.4m0 0c1.3-11.16.64-17.2 0-20.81m0 20.81c1.63-4.89-.76-12.16 0-20.81m0 0c.59-3.2 2.08-7.55 10.4-10.4m-10.4 10.4c-2.61-4.19 6.59-13 10.4-10.4"/>
  <g fill="none" stroke="#ccc" stroke-linecap="round" stroke-width="4">
    <path d="M258 255.178c0 5.99-1.26 29.96-1.58 35.87m.62-36.99c-.1 6.2-1.22 32.19-1.53 38.45"/>
    <path d="M249.95 275.488c1.27 3.69 1.98 8.55 5.97 15.43m-5.61-15c1.83 3.75 2.99 6.65 5.67 17.05"/>
    <path d="M262.22 276.038c-1.76 3.66-4.08 8.38-6.3 14.88m6.66-14.45c-.97 3.54-2.61 6.32-6.6 16.5"/>
  </g>
  <path fill="none" stroke="#1e1e1e" stroke-linecap="round" stroke-width="4" d="M44.338 315.051c40.71 1.73 82.08 2.58 124.89 0m-124.89 0c26.37 1.29 56.2 1.18 124.89 0m0 0c3.29 3.01 6.45 3.19 10.4 10.4m-10.4-10.4c7.43-2 6.93 4.23 10.4 10.4m0 0c-2.66 9.47-3.63 19.14 0 20.81m0-20.81c-1.13 6.85-.82 11.29 0 20.81m0 0c-3.04 7.84-3.96 6.7-10.4 10.4m10.4-10.4c3.9 10.34-4.5 6.95-10.4 10.4m0 0c-33.89-6.09-62.62-2.95-124.89 0m124.89 0c-46.72-3.72-91.37-3.51-124.89 0m0 0c-9.58 2.31-7.38-3.91-10.4-10.4m10.4 10.4c-9.04-.3-10.45.33-10.4-10.4m0 0c-2.06-9.3 1.79-12.01 0-20.81m0 20.81c1.43-8.29.24-13.16 0-20.81m0 0c-.35-9.09 6.17-7.69 10.4-10.4m-10.4 10.4c-1.43-8.73 7.23-10.09 10.4-10.4"/>
  <path fill="none" stroke="#1e1e1e" stroke-linecap="round" stroke-width="4" d="M203.717 314.878c28.96-3.55 58.33-4.56 122.86 0m-122.86 0c25.05-1.93 50.99-1.05 122.86 0m0 0c4.77 1.93 7.17 3.83 10.4 10.4m-10.4-10.4c6.75-.18 14.31 5.53 10.4 10.4m0 0c-2.2 8.36 3.56 10.29 0 20.81m0-20.81c-.23 8.4-1.42 11.86 0 20.81m0 0c.9 10.18-3.8 10.98-10.4 10.4m10.4-10.4c.53 7.03-3.57 9.04-10.4 10.4m0 0c-24.16-.81-52.45 5.17-122.86 0m122.86 0c-44.85-1.6-87.06-1.54-122.86 0m0 0c-3.85-1.65-9.04-.96-10.4-10.4m10.4 10.4c-8.69-4.23-8.45-3.28-10.4-10.4m0 0c3.49-5.42-3.01-14.94 0-20.81m0 20.81c.65-8.54-1.47-12.81 0-20.81m0 0c-2.47-3.21 1.24-14.15 10.4-10.4m-10.4 10.4c-1.46-11.31 4.27-11.74 10.4-10.4"/>
  <path fill="none" stroke="#1e1e1e" stroke-linecap="round" stroke-width="4" d="M361.084 314.484c45.7-.26 90.42.46 119.47 0m-119.47 0c33.88 2.3 68.36 2.87 119.47 0m0 0c8.08-2.46 10.48 7.35 10.41 10.4m-10.41-10.4c9.91 3.54 10.97 7.44 10.41 10.4m0 0c1.73 3.65-3.19 10.58 0 20.81m0-20.81c-.34 7.92.38 15.84 0 20.81m0 0c1.32 2.96-5.59 14.15-10.41 10.4m10.41-10.4c-.27 8.72-5.67 14.47-10.41 10.4m0 0c-45.75 4.13-84.54 1.28-119.47 0m119.47 0c-35.33-1.96-70.95-2.08-119.47 0m0 0c-8.55 1.27-7.54-2.31-10.4-10.4m10.4 10.4c-10.75-.27-8.27.38-10.4-10.4m0 0c-1.78-6.89 1.96-9.55 0-20.81m0 20.81c1.17-5.83 1.59-16.41 0-20.81m0 0c-3.9-10.85 2.52-11.18 10.4-10.4m-10.4 10.4c-2.89-3.17 3.43-13.83 10.4-10.4"/>
</svg>
