<svg xmlns="http://www.w3.org/2000/svg" width="1048.226" height="824.341" viewBox="0 0 524.113 412.171">
  <path fill="none" stroke="#ccc" stroke-linecap="round" stroke-width="2" d="M42 10c97.02 5.85 192.9 4.05 440.11 0M42 10c97.09 2.54 193.07 1.97 440.11 0m0 0c17.65-.56 32.34 12.44 32 32m-32-32c21.01-2.62 28.67 14.67 32 32m0 0c3.61 68.12 4.48 132.57 0 328.17m0-328.17c-1 102.02-2.81 204.17 0 328.17m0 0c2.57 22.28-13.42 31.4-32 32m32-32c-2.92 21.12-11.77 27.72-32 32m0 0c-150.1-1.08-301.41-1.29-440.11 0m440.11 0c-154.04-.73-307.71-.6-440.11 0m0 0c-22.71 3.61-29.77-12.5-32-32m32 32c-25.41-.19-34.42-7.26-32-32m0 0C11.85 253.68 12.66 142.73 10 42m0 328.17C9.03 299.83 9.27 232 10 42m0 0c2.43-18.18 11.03-30.76 32-32M10 42c.87-18.46 11.38-27.47 32-32"/>
  <path fill="none" stroke="#1e1e1e" stroke-linecap="round" stroke-width="4" d="M46.898 34.852c28-3.29 57.04 2.68 131.5 0m-131.5 0c35.64-1.28 68.83-1.83 131.5 0m0 0c7.05 3.45 13.01 2.91 14.41 14.41m-14.41-14.41c5.86 1.13 12.83.76 14.41 14.41m0 0c-2.15 7.42-1.27 21.34 0 28.82m0-28.82c-1.7 6.98-.65 14.71 0 28.82m0 0c.24 6.81-6.72 18.19-14.41 14.4m14.41-14.4c-3.49 12.48-3.72 16.15-14.41 14.4m0 0c-47.69 1.91-97.3.73-131.5 0m131.5 0c-32.73-.16-69.05-2.45-131.5 0m0 0c-6.92-.52-11.47-8.48-14.41-14.4m14.41 14.4c-8.97 3.04-18.43-8.55-14.41-14.4m0 0c-.8-5.59 2.26-19.08 0-28.82m0 28.82c-1.2-5.45 2.13-11.18 0-28.82m0 0c-3.63-7.33 3.82-16.37 14.41-14.41m-14.41 14.41c4.02-14.04 8.6-15.04 14.41-14.41M226.005 36.305c92.97 5.51 180 5.64 243.05 0m-243.05 0c96.19 1.65 192.67-.2 243.05 0m0 0c7.37-.16 12.61 1.78 14.4 14.41m-14.4-14.41c12.02.47 14.47 5.03 14.4 14.41m0 0c-.93 12.54.48 16.85 0 28.82m0-28.82c-1.38 10.44.8 19.09 0 28.82m0 0c2.7 11.39-5.05 12.82-14.4 14.4m14.4-14.4c1.25 5.08-8.31 13.99-14.4 14.4m0 0c-71.35-5.71-137.54-3.32-243.05 0m243.05 0c-70.63-.28-140.22-.07-243.05 0m0 0c-12.68-.8-10.67-2.11-14.41-14.4m14.41 14.4c-8.6.24-10.68-1.93-14.41-14.4m0 0c4.11-7.26 1.4-19.12 0-28.82m0 28.82c.65-7.75.54-15.22 0-28.82m0 0c-2.87-12.04 4.06-17.03 14.41-14.41m-14.41 14.41c-2.33-5.57 6.92-14.95 14.41-14.41M46.092 192.92c99.33 1.78 198.58-2.07 257.11 0m-257.11 0c56.49-2.13 109.94-2.15 257.11 0m0 0c7.76-1.95 14.41 5.17 14.41 14.41m-14.41-14.41c5.96-4 17.89 1.62 14.41 14.41m0 0c2.46 10.26-4.17 13.02 0 28.82m0-28.82c-.97 5.08 1.69 13.51 0 28.82m0 0c-.1 8.36-4.2 17.06-14.41 14.4m14.41-14.4c-2.55 12.57-.58 10.85-14.41 14.4m0 0c-86.22 1.34-169.73.31-257.11 0m257.11 0c-76.78-2.27-151.97-1.84-257.11 0m0 0c-11.66 2.94-13.96-4.13-14.41-14.4m14.41 14.4c-13.95 2.14-11.72-3.05-14.41-14.4m0 0c2.3-10.6-1.72-19.8 0-28.82m0 28.82c1.64-8.31 1.3-16.67 0-28.82m0 0c.31-8 1.47-12.54 14.41-14.41m-14.41 14.41c-.73-12.81 1.72-18.63 14.41-14.41M47.13 111.79c49.66-1.54 102.36 1.4 164.03 0m-164.03 0c44.34 2.55 83.62-.21 164.03 0m0 0c10.15 1.81 17.59 8.2 14.41 14.41m-14.41-14.41c6 3.63 11.74 1.48 14.41 14.41m0 0c1.91 5.25 1.33 9.61 0 28.82m0-28.82c1.53 7.94 1.27 16.27 0 28.82m0 0c-2.67 6.99-2.39 12.82-14.41 14.4m14.41-14.4c.71 9.87-.36 10.43-14.41 14.4m0 0c-38.98.01-71.61 2.24-164.03 0m164.03 0c-33.49 1.95-70.33 2.15-164.03 0m0 0c-6.6-1.03-16.71-2.29-14.41-14.4m14.41 14.4c-8.63-3.79-10.69-7.22-14.41-14.4m0 0c-1.69-4.21 1.26-16.21 0-28.82m0 28.82c-.94-6.4-2.42-10.89 0-28.82m0 0c1.69-11.09 5.02-12.34 14.41-14.41M32.72 126.2c.97-9.2.4-12.84 14.41-14.41M262.45 113.244c21.94 2.69 44.22.27 68.37 0m-68.37 0c17.9-2.15 38.66-.41 68.37 0m0 0c12.78 3.4 11.27 7.96 14.41 14.41m-14.41-14.41c6.93-3.33 11.21 7.4 14.41 14.41m0 0c1.23 6.16-1.33 18.19 0 28.82m0-28.82c1.98 10.42-.84 17.1 0 28.82m0 0c2.41 8.01-4.19 14.64-14.41 14.4m14.41-14.4c4.43 5.63-8.73 10.96-14.41 14.4m0 0c-19.62 3.57-40.55-1.59-68.37 0m68.37 0c-22.85 2.99-40.74.62-68.37 0m0 0c-11.91 2.51-13.56-8.1-14.41-14.4m14.41 14.4c-5.89-2.41-17.69-3.18-14.41-14.4m0 0c1.68-11.26-3.3-12.87 0-28.82m0 28.82c-1.79-7.86.97-19.12 0-28.82m0 0c.22-7.54 5.65-14.06 14.41-14.41m-14.41 14.41c-4.4-8.04 6.35-10.88 14.41-14.41M379.45 113.523c9.4.54 22.07 2.72 47.15 0m-47.15 0c11.17-.75 19.77 1.96 47.15 0m0 0c7.7-.87 17.29 6.75 14.41 14.41m-14.41-14.41c13.21-3.4 13.53 1.56 14.41 14.41m0 0c-1.6 11.61-3.43 18.95 0 28.82m0-28.82c1.28 7.53-.27 17.96 0 28.82m0 0c-.85 12.54-7.21 15.94-14.41 14.4m14.41-14.4c-3.54 5.05-2.32 15.62-14.41 14.4m0 0c-16.6-.61-29.41 1-47.15 0m47.15 0c-16.74-.37-31.88-1.21-47.15 0m0 0c-6.97 2.18-16.99-1.91-14.41-14.4m14.41 14.4c-11.08 2.79-12.99-4.54-14.41-14.4m0 0c-2.78-7.94.86-15.7 0-28.82m0 28.82c.59-10.44 1.39-21.88 0-28.82m0 0c-.91-11.6 7.1-14.15 14.41-14.41m-14.41 14.41c-3.59-9 5.01-16.59 14.41-14.41"/>
</svg>
