<svg xmlns="http://www.w3.org/2000/svg" width="1048.226" height="824.341" preserveAspectRatio="none" viewBox="9.359 9.735 507.793 392.943">
  <path fill="none" stroke="#1e1e1e" stroke-linecap="round" stroke-width="4" d="M423.46 36.894c17.72 3.14 37.8-2.66 55.67 0m-55.67 0c19.96 1.12 43.23-.76 55.67 0m0 0c14.36-2.06 19.59 2.02 16.8 16.8m-16.8-16.8c10.02-4.37 16.25 8.08 16.8 16.8m0 0c-1.01 11.15-2.5 19.63 0 33.61m0-33.61c1.49 10 .13 15.85 0 33.61m0 0c3.67 14.12-5.71 19.16-16.8 16.8m16.8-16.8c-1.67 9.5-5.49 14.02-16.8 16.8m0 0c-13.04.92-26.74 2.89-55.67 0m55.67 0c-21.44 1.1-44.67-1.73-55.67 0m0 0c-14.31.15-18.94-2.22-16.8-16.8m16.8 16.8c-13.26 3.51-19.8-7.63-16.8-16.8m0 0c-.24-11.69 2.15-22.94 0-33.61m0 33.61c-1.16-9.16-.48-14.33 0-33.61m0 0c.26-9.63 3.94-15.07 16.8-16.8m-16.8 16.8c2.17-8.72 9.95-18.57 16.8-16.8"/>
  <path fill="none" stroke="#1e1e1e" stroke-linecap="round" stroke-width="4" d="M48.991 120.26c67.23-4.12 139.6.26 184.65 0m-184.65 0c62.46.55 126.73 2.23 184.65 0m0 0c14.26-3.91 19.36 3.51 16.8 16.8m-16.8-16.8c14.22 3.09 19.89 7.56 16.8 16.8m0 0c2.82 12.56-3.21 24.98 0 33.61m0-33.61c.32 9.8-1.8 15.43 0 33.61m0 0c.88 12.96-5.13 14.38-16.8 16.8m16.8-16.8c-1.86 8.82-7.09 16.07-16.8 16.8m0 0c-62.99-.81-122.02 2.22-184.65 0m184.65 0c-55.37 1.47-112.09 2.68-184.65 0m0 0c-8.13.18-19.26-5.36-16.8-16.8m16.8 16.8c-12.18-1.54-17.97-9.18-16.8-16.8m0 0c-1.82-9.28-1.23-15.77 0-33.61m0 33.61c.89-10.16-1.51-18.65 0-33.61m0 0c3.95-10.75 5.89-15.56 16.8-16.8m-16.8 16.8c1.98-8.51 1.89-19.38 16.8-16.8"/>
  <path fill="none" stroke="#1e1e1e" stroke-linecap="round" stroke-width="4" d="M49.514 36.073c32.36-.9 63.47-1.01 84.89 0m-84.89 0c26.28 1.07 56.99-.15 84.89 0m0 0c8.45-.61 15.16 5.29 16.8 16.8m-16.8-16.8c8.01-4.17 13.63 5.33 16.8 16.8m0 0c1.13 12.91 1.01 26.03 0 33.61m0-33.61c-1.72 13.27.83 23.66 0 33.61m0 0c-3.6 11.09-4.98 19.55-16.8 16.8m16.8-16.8c3.1 11.25-3.37 13.63-16.8 16.8m0 0c-31.12-3.77-56.83.61-84.89 0m84.89 0c-33.18.21-66-.81-84.89 0m0 0c-13.81.65-17.51-3.98-16.8-16.8m16.8 16.8c-15.45-2.73-13.06-1.39-16.8-16.8m0 0c2.09-11.83 1.19-20.14 0-33.61m0 33.61c1.72-9.65.24-18.82 0-33.61m0 0c-2.74-10.28 8.92-14.57 16.8-16.8m-16.8 16.8c3.14-6.76 7.31-16 16.8-16.8"/>
  <path fill="none" stroke="#1e1e1e" stroke-linecap="round" stroke-width="4" d="M182.93 37.048c43.67-.01 82.61 4.7 188.15 0m-188.15 0c60.88 1.09 122.14 1.56 188.15 0m0 0c9.62 2.68 15.66 6.93 16.8 16.8m-16.8-16.8c10.09 3.07 13.48 6.81 16.8 16.8m0 0c.97 11.15-2.61 17.89 0 33.61m0-33.61c.93 13.37-.32 27.56 0 33.61m0 0c-2.01 8.24-5.05 19.87-16.8 16.8m16.8-16.8c3.51 14.29-9.41 14.82-16.8 16.8m0 0c-41.33-3.6-77.71 1.49-188.15 0m188.15 0c-62.26-2.9-122.68-3.38-188.15 0m0 0c-12-.28-19.47-3.46-16.8-16.8m16.8 16.8c-14.52 1.39-18.66-3.6-16.8-16.8m0 0c.3-16.09 1.14-26.7 0-33.61m0 33.61c-1.21-11.32.95-19.56 0-33.61m0 0c-.8-11.9 7.96-17.14 16.8-16.8m-16.8 16.8c2.59-8.84 9.07-21.34 16.8-16.8"/>
  <path fill="none" stroke="#ccc" stroke-linecap="round" stroke-width="2" d="M42 10c97.02 5.85 192.9 4.05 440.11 0M42 10c97.09 2.54 193.07 1.97 440.11 0m0 0c17.65-.56 32.34 12.44 32 32m-32-32c21.01-2.62 28.67 14.67 32 32m0 0c3.61 68.12 4.48 132.57 0 328.17m0-328.17c-1 102.02-2.81 204.17 0 328.17m0 0c2.57 22.28-13.42 31.4-32 32m32-32c-2.92 21.12-11.77 27.72-32 32m0 0c-150.1-1.08-301.41-1.29-440.11 0m440.11 0c-154.04-.73-307.71-.6-440.11 0m0 0c-22.71 3.61-29.77-12.5-32-32m32 32c-25.41-.19-34.42-7.26-32-32m0 0C11.85 253.68 12.66 142.73 10 42m0 328.17C9.03 299.83 9.27 232 10 42m0 0c2.43-18.18 11.03-30.76 32-32M10 42c.87-18.46 11.38-27.47 32-32"/>
  <path fill="none" stroke="#1e1e1e" stroke-linecap="round" stroke-width="4" d="M284.242 118.862c35.66 2.47 66.91 3.55 84.89 0m-84.89 0c20.32-1.3 43.66-1.26 84.89 0m0 0c8.42-.19 19.65 6.47 16.8 16.8m-16.8-16.8c10.8 3.19 15.33 7.74 16.8 16.8m0 0c3.4 9.72-4.24 17.18 0 33.61m0-33.61c-.29 13.1 1.46 22.55 0 33.61m0 0c.56 8.26-8.22 20.32-16.8 16.8m16.8-16.8c1.17 14.35-7.07 17.78-16.8 16.8m0 0c-21.57-3.23-46.71-2.43-84.89 0m84.89 0c-22.95-.43-43.31.55-84.89 0m0 0c-11.39-3.33-12.89-5.38-16.8-16.8m16.8 16.8c-11.18-2.06-19.19-7.68-16.8-16.8m0 0c-1.49-8.68 2.83-12.25 0-33.61m0 33.61c.35-8.85-.15-16.82 0-33.61m0 0c-2.92-12.98 1.83-15.5 16.8-16.8m-16.8 16.8c.29-8.74 10.02-19.88 16.8-16.8"/>
  <path fill="none" stroke="#1e1e1e" stroke-linecap="round" stroke-width="4" d="M422.098 118.007c18.06 2.66 35.46-1.14 60.56 0m-60.56 0c18.19-.85 32.96.36 60.56 0m0 0c12.66.16 16.34 6.61 16.81 16.8m-16.81-16.8c7.24 1.47 19.96 9.66 16.81 16.8m0 0c-1.47 8.55-2.69 23.01 0 33.61m0-33.61c1.37 8.94-.55 16.97 0 33.61m0 0c.62 10.63-8.92 16.98-16.81 16.8m16.81-16.8c.8 8.9-2.35 13.93-16.81 16.8m0 0c-21.05 3.07-43-1.55-60.56 0m60.56 0c-19.79-1.23-35.24.38-60.56 0m0 0c-14.05 1.55-20.07-6.81-16.8-16.8m16.8 16.8c-11.08 3.78-17.16-8.71-16.8-16.8m0 0c2.24-7.88 3.04-12.4 0-33.61m0 33.61c-1.8-13.32.6-25.04 0-33.61m0 0c1.95-7.79 1.64-14.05 16.8-16.8m-16.8 16.8c3.06-11.31 8.95-18.61 16.8-16.8"/>
  <path fill="none" stroke="#1e1e1e" stroke-linecap="round" stroke-width="4" d="M424.674 205.117c22.29-.35 43.74-2.06 55.67 0m-55.67 0c17.65 0 38.06.01 55.67 0m0 0c15.13 1.03 13.56 3.77 16.8 16.8m-16.8-16.8c15.68 3.24 14.41 6.4 16.8 16.8m0 0c-3.31 11.95-2.24 24.55 0 33.61m0-33.61c1.01 11.42 1.79 24.38 0 33.61m0 0c3.16 10.38-8.71 14.59-16.8 16.8m16.8-16.8c3.13 8.08-10.02 19.59-16.8 16.8m0 0c-18.65-4.61-33.45-2.53-55.67 0m55.67 0c-16.37 2.3-33.55.79-55.67 0m0 0c-9.43 3-17.26-6.02-16.8-16.8m16.8 16.8c-12.34-2.36-15.69-8.47-16.8-16.8m0 0c-3.38-9.53 2.96-25.25 0-33.61m0 33.61c.89-8.62 1.24-14.59 0-33.61m0 0c3.21-13.86 6.17-18.39 16.8-16.8m-16.8 16.8c-.94-9.44 9.59-20.92 16.8-16.8"/>
  <path fill="none" stroke="#1e1e1e" stroke-linecap="round" stroke-width="4" d="M50.206 288.484c74.11-1.66 143.1-4.07 184.65 0m-184.65 0c53.63.16 106.59.86 184.65 0m0 0c7.96-1.83 20.7 8.42 16.8 16.8m-16.8-16.8c8.81.8 19.84 5.74 16.8 16.8m0 0c-2.82 8.72 2.67 19.26 0 33.61m0-33.61c1.74 7.31 1.82 16.66 0 33.61m0 0c-3.11 8.99-2.87 14.08-16.8 16.8m16.8-16.8c-4.42 13.99-6.72 16.16-16.8 16.8m0 0c-43.64-5.09-82.25-3.45-184.65 0m184.65 0c-65.85 3.51-127.84 4.75-184.65 0m0 0c-11.66-.42-17.79-7.66-16.8-16.8m16.8 16.8c-10.09-2.87-12.61-7.86-16.8-16.8m0 0c3.25-5.78-1.73-15.45 0-33.61m0 33.61c.74-5.77 1.41-16.09 0-33.61m0 0c.57-12.79 4.78-15.27 16.8-16.8m-16.8 16.8c3.99-15.32 8.4-21.4 16.8-16.8"/>
  <path fill="none" stroke="#1e1e1e" stroke-linecap="round" stroke-width="4" d="M50.728 204.296c27.92-3.06 52.76-.98 84.89 0m-84.89 0c26.65.67 47.74-.76 84.89 0m0 0c15.1 2.82 14.73 6.29 16.8 16.8m-16.8-16.8c14.24.14 15 1.77 16.8 16.8m0 0c2.86 11.51-2.22 21.01 0 33.61m0-33.61c2.09 7.35-1.05 14.41 0 33.61m0 0c2.73 8.48-9.44 19.22-16.8 16.8m16.8-16.8c-1.12 10.56-9.21 12.99-16.8 16.8m0 0c-18.03-.71-33.17-1.38-84.89 0m84.89 0c-32.06 1.71-66.12.01-84.89 0m0 0c-12.19-2.06-15.83-8.1-16.8-16.8m16.8 16.8c-7.01-2.26-21.28-9.87-16.8-16.8m0 0c-2.8-14.95-3.66-25.08 0-33.61m0 33.61c1.29-10.55-.03-19.23 0-33.61m0 0c-.82-9.67 9.07-20.38 16.8-16.8m-16.8 16.8c2.8-15.79 4.5-20.16 16.8-16.8"/>
  <path fill="none" stroke="#1e1e1e" stroke-linecap="round" stroke-width="4" d="M184.145 205.272c50.5 1.87 101.95 5.95 188.15 0m-188.15 0c53.14-1.88 111.46.44 188.15 0m0 0c9.12.69 19.44 5.72 16.8 16.8m-16.8-16.8c9.4-3.83 16.39 3 16.8 16.8m0 0c-1.3 11.48-2.22 23.08 0 33.61m0-33.61c-1.02 6.92 1.89 14.7 0 33.61m0 0c-3.84 13.62-6.58 16.24-16.8 16.8m16.8-16.8c-3.62 7.39-9.89 13.62-16.8 16.8m0 0c-46.74-.68-93.84-2.97-188.15 0m188.15 0c-59.08 2.61-118.18 1.8-188.15 0m0 0c-10.23-2.5-13.15-7.57-16.8-16.8m16.8 16.8c-15.68-4.27-12.64-2.58-16.8-16.8m0 0c-2.82-9.79-.64-20.04 0-33.61m0 33.61c-.25-13.6-.95-24.83 0-33.61m0 0c3.47-14.78 8.03-20.8 16.8-16.8m-16.8 16.8c-1.1-14.56 9.75-15.76 16.8-16.8"/>
</svg>
