<svg xmlns="http://www.w3.org/2000/svg" width="1048.226" height="824.341" viewBox="0 0 524.113 412.171">
  <path fill="none" stroke="#ccc" stroke-linecap="round" stroke-width="2" d="M42 10c97.02 5.85 192.9 4.05 440.11 0M42 10c97.09 2.54 193.07 1.97 440.11 0m0 0c17.65-.56 32.34 12.44 32 32m-32-32c21.01-2.62 28.67 14.67 32 32m0 0c3.61 68.12 4.48 132.57 0 328.17m0-328.17c-1 102.02-2.81 204.17 0 328.17m0 0c2.57 22.28-13.42 31.4-32 32m32-32c-2.92 21.12-11.77 27.72-32 32m0 0c-150.1-1.08-301.41-1.29-440.11 0m440.11 0c-154.04-.73-307.71-.6-440.11 0m0 0c-22.71 3.61-29.77-12.5-32-32m32 32c-25.41-.19-34.42-7.26-32-32m0 0C11.85 253.68 12.66 142.73 10 42m0 328.17C9.03 299.83 9.27 232 10 42m0 0c2.43-18.18 11.03-30.76 32-32M10 42c.87-18.46 11.38-27.47 32-32"/>
  <path fill="none" stroke="#1e1e1e" stroke-linecap="round" stroke-width="4" d="M53.019 30.101c90.063-3.87 180.755-1.293 411.258-3.147M53.019 30.1c108.77-4.302 216.225-5.425 411.258-3.147m0 0c18.796 3.306 30.666 8.535 32.244 31.754m-32.244-31.754c17.588.995 30.48 6.396 32.244 31.754m0 0c-.797 31.757.386 69.999.822 107.387m-.822-107.387c-1.945 25.555-.693 51.847.822 107.387m0 0c.382 18.537-12.316 35.875-31.754 32.244m31.754-32.244c-3.305 24.236-9.332 33.812-31.754 32.244m0 0c-147.299.747-295.66 1.232-411.258 3.147m411.258-3.147c-105.274-.105-212.51-.544-411.258 3.147m0 0c-18.654-.387-29.17-14.127-32.244-31.754m32.244 31.754c-20.677 3.189-36.13-14.144-32.244-31.754m0 0c-1.406-26.87 1.388-61.672-.822-107.387m.822 107.387c-.229-23.309 2.92-46.934-.822-107.387m0 0c-3.776-19.021 9.42-34.033 31.754-32.244M21.265 62.345c3.823-25.79 14.21-32.74 31.754-32.244"/>
  <g stroke-linecap="round">
    <path fill="#fff" d="M127.512 49.94c71.86 3.69 149.52-.2 267.01 0 10.09 5.53 17.09 5.67 22.1 22.09 2.6 16.8-2.42 31.17 0 44.18-5.13 15.69-7.23 22.87-22.1 22.09-103.96 2.32-206.75-2.68-267.01 0-18.77 3.77-17.31-10.13-22.09-22.09.62-16.37-4.9-24.51 0-44.18 3.35-9.85 8.56-22.9 22.09-22.09"/>
    <path fill="none" stroke="#1e1e1e" stroke-width="4" d="M127.512 49.94c101.94 5.57 198.21 5.69 267.01 0m-267.01 0c105.82 1.69 211.9-.07 267.01 0m0 0c12.5-.16 20.3 4.34 22.1 22.09m-22.1-22.09c17.15.47 22.16 7.59 22.1 22.09m0 0c-.72 17.77.69 27.32 0 44.18m0-44.18c-1.14 15.55 1.04 29.32 0 44.18m0 0c2.69 16.51-7.62 20.51-22.1 22.09m22.1-22.09c1.24 10.21-10.88 21.68-22.1 22.09m0 0c-78.22-5.8-151.54-3.52-267.01 0m267.01 0c-77.44-.21-153.88-.01-267.01 0m0 0c-17.8-.8-18.35-4.67-22.09-22.09m22.09 22.09c-13.72.24-18.36-4.49-22.09-22.09m0 0c4.21-12.91 1.49-30.42 0-44.18m0 44.18c.41-11.4.3-22.53 0-44.18m0 0c-2.87-17.16 6.62-24.71 22.09-22.09m-22.09 22.09c-2.33-10.69 9.48-22.63 22.09-22.09"/>
  </g>
</svg>
