<svg xmlns="http://www.w3.org/2000/svg" width="1048.226" height="824.341" viewBox="0 0 524.113 412.171">
  <path fill="none" stroke="#ccc" stroke-linecap="round" stroke-width="2" d="M42 10c97.02 5.85 192.9 4.05 440.11 0M42 10c97.09 2.54 193.07 1.97 440.11 0m0 0c17.65-.56 32.34 12.44 32 32m-32-32c21.01-2.62 28.67 14.67 32 32m0 0c3.61 68.12 4.48 132.57 0 328.17m0-328.17c-1 102.02-2.81 204.17 0 328.17m0 0c2.57 22.28-13.42 31.4-32 32m32-32c-2.92 21.12-11.77 27.72-32 32m0 0c-150.1-1.08-301.41-1.29-440.11 0m440.11 0c-154.04-.73-307.71-.6-440.11 0m0 0c-22.71 3.61-29.77-12.5-32-32m32 32c-25.41-.19-34.42-7.26-32-32m0 0C11.85 253.68 12.66 142.73 10 42m0 328.17C9.03 299.83 9.27 232 10 42m0 0c2.43-18.18 11.03-30.76 32-32M10 42c.87-18.46 11.38-27.47 32-32"/>
  <path fill="none" stroke="#1e1e1e" stroke-linecap="round" stroke-width="4" d="M108.482 29.677c66.39-4.029 133.602-.213 304.63-2.332m-304.63 2.332c80.893-3.82 160.037-4.825 304.63-2.332m0 0c18.796 3.306 30.657 8.536 32.245 31.754m-32.244-31.754c17.588.996 30.47 6.397 32.244 31.754m0 0c1.852 89.199 3.232 183.24 2.232 291.702m-2.232-291.702c-1.842 69.076-.529 138.688 2.232 291.702m0 0c.382 18.537-12.316 35.885-31.754 32.244m31.754-32.244c-3.314 24.236-9.331 33.822-31.754 32.244m0 0c-109.335 1.057-220.068 1.044-304.631 2.331m304.631-2.331c-77.624-.196-157.844-1.242-304.631 2.331m0 0C92.551 385 82.035 371.26 78.96 353.622m32.244 31.754c-20.676 3.189-36.13-14.144-32.244-31.754m0 0c-2.192-77.375-.54-160.68-2.233-291.701m2.233 291.701c1.489-65.513 3.476-131.25-2.233-291.701m0 0c-3.775-19.022 9.42-34.033 31.755-32.244M76.727 61.92c3.823-25.79 14.21-32.74 31.755-32.244"/>
  <g stroke-linecap="round">
    <path fill="#fff" d="M40.403 65.472c124.76 2.21 253.12-.2 447.23 0 7.5 5.53 13.2 4.38 18.21 18.21 2.51 13.95-2.52 25.47 0 36.41-5.12 13.1-5.93 18.99-18.21 18.21-172.46 1.56-344.19-1.53-447.23 0-16.18 3.77-13.43-8.83-18.21-18.21.64-13.9-4.88-19.57 0-36.41 3.35-7.26 7.27-19.02 18.21-18.21"/>
    <path fill="none" stroke="#1e1e1e" stroke-width="4" d="M40.403 65.472c169.3 4.96 335.1 5.03 447.23 0m-447.23 0c178.17 1.59 356.52.51 447.23 0m0 0c9.91-.16 16.42 3.04 18.21 18.21m-18.21-18.21c14.56.47 18.27 6.29 18.21 18.21m0 0c-.83 15.13.58 22.03 0 36.41m0-36.41c-1.26 12.97.92 24.15 0 36.41m0 0c2.69 13.93-6.32 16.63-18.21 18.21m18.21-18.21c1.24 7.62-9.58 17.8-18.21 18.21m0 0c-129.98-5.29-256.92-3.88-447.23 0m447.23 0c-128.66.1-256.71.23-447.23 0m0 0c-15.22-.8-14.47-3.38-18.21-18.21m18.21 18.21c-11.13.24-14.48-3.2-18.21-18.21m0 0c4.16-10.05 1.45-24.7 0-36.41m0 36.41c.53-9.55.42-18.83 0-36.41m0 0c-2.87-14.58 5.33-20.83 18.21-18.21m-18.21 18.21c-2.33-8.11 8.19-18.75 18.21-18.21"/>
  </g>
  <g stroke-linecap="round">
    <path fill="#fff" d="M41.508 206.788c69.39-.72 136.74-5.76 188.86 0 7.28-5.26 20.28 9.8 18.21 18.21 5.48 13.67-4.6 15.09 0 36.41-2.86 17.74-6.24 16.17-18.21 18.21-51.72 3.5-91.22 3.16-188.86 0-7.54 5.5-14.88-7.07-18.21-18.21-2.21-12.39 3.37-30.77 0-36.41-3.15-13.59 11.26-14.75 18.21-18.21"/>
    <path fill="none" stroke="#1e1e1e" stroke-width="4" d="M41.508 206.788c66.75-3.6 132.12-2.74 188.86 0m-188.86 0c72.64 1.03 141.99 1 188.86 0m0 0c13.35 3.21 18.19 9.81 18.21 18.21m-18.21-18.21c10.89-4.03 15.06 4.49 18.21 18.21m0 0c3.17 5.08 1.7 18.66 0 36.41m0-36.41c1.28 8.69 1.31 15.74 0 36.41m0 0c2.74 9.46-4.19 16.32-18.21 18.21m18.21-18.21c3.85 14.76-3.8 15.88-18.21 18.21m0 0c-51.79 2.18-107.32 2.74-188.86 0m188.86 0c-66.06.59-135.29.78-188.86 0m0 0c-11.55 2.37-20.58-5.57-18.21-18.21m18.21 18.21c-16.72-3.27-20.01-6.92-18.21-18.21m0 0c.48-13.62-.99-29.83 0-36.41m0 36.41c-2.25-9.19-.65-18.52 0-36.41m0 0c.44-10.74 6.26-21.93 18.21-18.21m-18.21 18.21c4.5-14.34 8.85-17.88 18.21-18.21"/>
  </g>
  <g stroke-linecap="round">
    <path fill="#fff" d="M293.68 205.857c59.56 5.58 130.9 4.77 188.86 0 6.76-.12 20.95 11.07 18.21 18.21 1.54 7.31 3.73 20.79 0 36.41-2.73 14.54-5.05 19.55-18.21 18.21-68.08 9.49-136.21 1.71-188.86 0-16.99 3.46-14.42-2.64-18.21-18.21-2.76-12.12 4.89-23.85 0-36.41-4.55-14.53 7.33-13.92 18.21-18.21"/>
    <path fill="none" stroke="#1e1e1e" stroke-width="4" d="M293.68 205.857c71.19 1.64 146.98.87 188.86 0m-188.86 0c55.58 3.28 112.22 2.86 188.86 0m0 0c13.29-3.39 21.05 3.91 18.21 18.21m-18.21-18.21c7.66 3.93 18.79 7.7 18.21 18.21m0 0c3.61 12.84-2.32 30.89 0 36.41m0-36.41c.19 9.48-.13 19.49 0 36.41m0 0c2.84 8.6-6.25 18.76-18.21 18.21m18.21-18.21c-3.88 9.59-9.6 16.75-18.21 18.21m0 0c-59.85 3.04-120.11 4.89-188.86 0m188.86 0c-65.57 3.6-131.4 3.99-188.86 0m0 0c-12.82-.36-18.41-7.85-18.21-18.21m18.21 18.21c-13.59 1.41-22.63-4.32-18.21-18.21m0 0c1.94-14.64 2.68-20.96 0-36.41m0 36.41c-.48-7.28.76-17.53 0-36.41m0 0c-3.54-13.45 6.53-16.99 18.21-18.21m-18.21 18.21c-1.54-13.03 5.71-18.68 18.21-18.21"/>
  </g>
  <g stroke-linecap="round">
    <path fill="#fff" d="M39.754 310.897c141.94-4.1 287.94-2.95 447.23 0 10.11 2.73 16.92.96 18.21 18.21-2.2 6.38-1.77 14.44 0 36.41-2.84 15.37-5.96 22.92-18.21 18.21-114.38-6.44-226.44-8.26-447.23 0-11.15-1.75-22.98-11.16-18.21-18.21-1.33-11.34-3.04-27.43 0-36.41.4-13.56 5.67-17.9 18.21-18.21"/>
    <path fill="none" stroke="#1e1e1e" stroke-width="4" d="M39.754 310.897c148.51.6 294.55 4.02 447.23 0m-447.23 0c129.96.89 258.49.63 447.23 0m0 0c11.61-3.57 20.82 8.35 18.21 18.21m-18.21-18.21c11.88.03 21.87 8.13 18.21 18.21m0 0c1.66 11.5 1.79 25.75 0 36.41m0-36.41c.2 9.31.72 15.72 0 36.41m0 0c-.42 9.33-3.69 14.74-18.21 18.21m18.21-18.21c.41 12.01-4.54 16.41-18.21 18.21m0 0c-176.69 1.29-350 3.38-447.23 0m447.23 0c-119.3-.68-240.36-.48-447.23 0m0 0c-15.03-2.7-16.12-7.88-18.21-18.21m18.21 18.21c-11.84-.85-19-3.27-18.21-18.21m0 0c-.94-15.2-1.36-28.82 0-36.41m0 36.41c-1-9.34-2.14-21.69 0-36.41m0 0c-3.27-15.36 3.77-16.56 18.21-18.21m-18.21 18.21c1.72-12.03 10.57-22.14 18.21-18.21"/>
  </g>
</svg>
