<svg xmlns="http://www.w3.org/2000/svg" width="1118.42" height="824.342" preserveAspectRatio="none" viewBox="9.359 9.736 507.793 392.943">
  <g stroke-linecap="round">
    <path fill="none" stroke="#1e1e1e" stroke-width="4" d="M200.717 139.878c33.36-3.68 67.15-4.7 142.4 0m-142.4 0c29.07-2.02 59.04-1.13 142.4 0m0 0c4.77 1.93 7.17 3.83 10.4 10.4m-10.4-10.4c6.75-.18 14.31 5.53 10.4 10.4m0 0c-2.21 8.36 3.56 10.29 0 20.81m0-20.81c-.23 8.4-1.42 11.86 0 20.81m0 0c.9 10.18-3.8 10.98-10.4 10.4m10.4-10.4c.53 7.03-3.57 9.04-10.4 10.4m0 0c-28.59-.53-61.32 5.46-142.4 0m142.4 0c-51.8-1.93-100.95-1.88-142.4 0m0 0c-3.85-1.65-9.04-.96-10.4-10.4m10.4 10.4c-8.69-4.23-8.45-3.28-10.4-10.4m0 0c3.49-5.42-3.01-14.94 0-20.81m0 20.81c.65-8.54-1.47-12.81 0-20.81m0 0c-2.47-3.21 1.24-14.15 10.4-10.4m-10.4 10.4c-1.46-11.31 4.27-11.74 10.4-10.4"/>
    <path fill="none" stroke="#1e1e1e" stroke-width="4" d="M380.1 139.484c60.82.17 92.943 1.273 130.983.383m-130.983-.383c45.05 2.88 63.243 3.776 131.253.326m-1.553 40.552c-59.67 4.18-83.36 2.062-129.7.732m131.447-.899c-46.8-2.41-66.617-1.631-131.447.899m0 0c-8.55 1.27-7.54-2.31-10.4-10.4m10.4 10.4c-10.75-.27-8.27.38-10.4-10.4m0 0c-1.78-6.89 1.96-9.55 0-20.81m0 20.81c1.17-5.83 1.59-16.41 0-20.81m0 0c-3.9-10.85 2.52-11.18 10.4-10.4m-10.4 10.4c-2.89-3.17 3.43-13.83 10.4-10.4"/>
    <path fill="none" stroke="#1e1e1e" stroke-width="4" d="M31.96 138.532c28.37-3.3 57.78 2.66 133.17 0m-133.17 0c36.08-1.31 69.71-1.86 133.17 0m0 0c4.37 3.45 9 1.57 10.4 10.4m-10.4-10.4c3.18 1.13 8.83-.57 10.4 10.4m0 0c-2.26 4.94-1.38 16.38 0 20.81m0-20.81c-1.65 5.09-.61 10.93 0 20.81m0 0c.24 4.14-5.39 14.19-10.4 10.4m10.4-10.4c-3.49 9.81-2.39 12.15-10.4 10.4m0 0c-48.28 1.89-98.49.71-133.17 0m133.17 0c-33.16-.17-69.9-2.47-133.17 0m0 0c-4.25-.52-7.46-7.14-10.4-10.4m10.4 10.4c-6.3 3.03-14.42-7.22-10.4-10.4m0 0c-.76-3.42 2.3-14.74 0-20.81m0 20.81c-1.32-3.62 2.01-7.53 0-20.81m0 0c-3.63-4.65 2.48-12.36 10.4-10.4m-10.4 10.4c4.02-11.36 7.26-11.03 10.4-10.4"/>
    <path fill="none" stroke="#ccc" stroke-width="4" d="M37.892 195.164c164.42 2.19 330.69 2.17 458.17 2.62m-457.53-.8c129.45-2.05 256.57-1.65 457.87 1.69"/>
    <path fill="#ccc" fill-rule="evenodd" d="m38.682 193.774 14.33-3.45-.45 11.91-14.92-8.16"/>
    <path fill="none" stroke="#ccc" stroke-width="4" d="M37.492 194.084c4.71-1.71 10.91-4.52 13.93-5.67m-13.41 7.13c4.44-1.99 7.01-3.85 13.68-6.42m1.08-.98c-.2 5.42-2.32 7.55-1.11 14.59m-.62-13.29c-.09 4.78.22 9.9.74 11.9m-.22 1.46c-6.83-2.37-10.78-6.94-14.87-7.52m15.44 5.98c-4.3-1.88-7.08-2.6-13.5-6.39m-.74.29s0 0 0 0m0 0s0 0 0 0"/>
    <path fill="#ccc" fill-rule="evenodd" d="m497.202 197.284-12.99 8.95-.19-13.44 12.14 4.79"/>
    <path fill="none" stroke="#ccc" stroke-width="4" d="M496.012 197.604c-5.1 2.68-8.72 4.34-13.4 6.73m13.91-5.28c-3.28 1.65-8.4 3.28-13.63 5.99m1.08-.98c-.17-2.19-2.21-7.65-.85-10.77m-.88 12.07c.09-5.32.5-10.29 1-13.46m-.22 1.46c3.91 2.96 10.69 3.53 12.18 5.43m-11.61-6.97c2.64 1.62 6.88 4.27 13.56 6.57m-.75.28s0 0 0 0m0 0s0 0 0 0"/>
    <path fill="none" stroke="#ccc" stroke-width="2" d="M42 10c97.02 5.85 192.9 4.05 440.11 0M42 10c97.09 2.54 193.07 1.97 440.11 0m0 0c17.65-.56 32.34 12.44 32 32m-32-32c21.01-2.62 28.67 14.67 32 32m0 0c3.61 68.12 4.48 132.57 0 328.17m0-328.17c-1 102.02-2.81 204.17 0 328.17m0 0c2.57 22.28-13.42 31.4-32 32m32-32c-2.92 21.12-11.77 27.72-32 32m0 0c-150.1-1.08-301.41-1.29-440.11 0m440.11 0c-154.04-.73-307.71-.6-440.11 0m0 0c-22.71 3.61-29.77-12.5-32-32m32 32c-25.41-.19-34.42-7.26-32-32m0 0C11.85 253.68 12.66 142.73 10 42m0 328.17C9.03 299.83 9.27 232 10 42m0 0c2.43-18.18 11.03-30.76 32-32M10 42c.87-18.46 11.38-27.47 32-32"/>
  </g>
</svg>
