<svg xmlns="http://www.w3.org/2000/svg" width="1048.226" height="824.341" preserveAspectRatio="none" viewBox="9.359 9.735 507.793 392.943">
  <path fill="none" stroke="#1e1e1e" stroke-linecap="round" stroke-width="4" d="M55.357 312.364c26.12 3.26 54.61-2.54 79.19 0m-79.19 0c29.16 1.52 61.63-.35 79.19 0m0 0c14.36-2.06 19.6 2.02 16.81 16.8m-16.81-16.8c10.03-4.37 16.26 8.08 16.81 16.8m0 0c-1.01 11.15-2.5 19.63 0 33.61m0-33.61c1.48 10 .12 15.85 0 33.61m0 0c3.67 14.12-5.71 19.16-16.81 16.8m16.81-16.8c-1.67 9.5-5.49 14.02-16.81 16.8m0 0c-18.08 1.04-36.82 3-79.19 0m79.19 0c-30.56 1.06-62.93-1.78-79.19 0m0 0c-14.31.15-18.94-2.22-16.8-16.8m16.8 16.8c-13.26 3.51-19.8-7.63-16.8-16.8m0 0c-.24-11.69 2.15-22.94 0-33.61m0 33.61c-1.16-9.16-.48-14.33 0-33.61m0 0c.26-9.63 3.94-15.07 16.8-16.8m-16.8 16.8c2.17-8.72 9.95-18.57 16.8-16.8"/>
  <path fill="none" stroke="#1e1e1e" stroke-linecap="round" stroke-width="4" d="M314.706 312.364c58.81-4.02 122.76.37 162.13 0m-162.13 0c54.73.44 111.26 2.12 162.13 0m0 0c14.26-3.91 19.36 3.51 16.8 16.8m-16.8-16.8c14.22 3.09 19.89 7.56 16.8 16.8m0 0c2.82 12.56-3.21 24.98 0 33.61m0-33.61c.32 9.8-1.8 15.43 0 33.61m0 0c.88 12.96-5.13 14.38-16.8 16.8m16.8-16.8c-1.86 8.82-7.09 16.07-16.8 16.8m0 0c-55.62-.6-107.29 2.42-162.13 0m162.13 0c-48.6 1.35-98.54 2.57-162.13 0m0 0c-8.13.18-19.26-5.36-16.8-16.8m16.8 16.8c-12.18-1.54-17.97-9.18-16.8-16.8m0 0c-1.82-9.28-1.23-15.77 0-33.61m0 33.61c.89-10.16-1.51-18.65 0-33.61m0 0c3.95-10.75 5.89-15.56 16.8-16.8m-16.8 16.8c1.98-8.51 1.89-19.38 16.8-16.8"/>
  <path fill="none" stroke="#1e1e1e" stroke-linecap="round" stroke-width="4" d="M49.514 36.073c32.36-.9 63.47-1.01 84.89 0m-84.89 0c26.28 1.07 56.99-.15 84.89 0m0 0c8.45-.61 15.16 5.29 16.8 16.8m-16.8-16.8c8.01-4.17 13.63 5.33 16.8 16.8m0 0c1.13 12.91 1.01 26.03 0 33.61m0-33.61c-1.72 13.27.83 23.66 0 33.61m0 0c-3.6 11.09-4.98 19.55-16.8 16.8m16.8-16.8c3.1 11.25-3.37 13.63-16.8 16.8m0 0c-31.12-3.77-56.83.61-84.89 0m84.89 0c-33.18.21-66-.81-84.89 0m0 0c-13.81.65-17.51-3.98-16.8-16.8m16.8 16.8c-15.45-2.73-13.06-1.39-16.8-16.8m0 0c2.09-11.83 1.19-20.14 0-33.61m0 33.61c1.72-9.65.24-18.82 0-33.61m0 0c-2.74-10.28 8.92-14.57 16.8-16.8m-16.8 16.8c3.14-6.76 7.31-16 16.8-16.8"/>
  <path fill="none" stroke="#1e1e1e" stroke-linecap="round" stroke-width="4" d="M50.363 120.486c43.67-.01 82.61 4.7 188.15 0m-188.15 0c60.88 1.09 122.14 1.56 188.15 0m0 0c9.62 2.68 15.66 6.93 16.8 16.8m-16.8-16.8c10.09 3.07 13.48 6.81 16.8 16.8m0 0c.97 11.15-2.61 17.89 0 33.61m0-33.61c.93 13.37-.32 27.56 0 33.61m0 0c-2.01 8.24-5.05 19.87-16.8 16.8m16.8-16.8c3.51 14.29-9.41 14.82-16.8 16.8m0 0c-41.33-3.6-77.71 1.49-188.15 0m188.15 0c-62.26-2.9-122.68-3.38-188.15 0m0 0c-12-.28-19.47-3.46-16.8-16.8m16.8 16.8c-14.52 1.39-18.66-3.6-16.8-16.8m0 0c.3-16.09 1.14-26.7 0-33.61m0 33.61c-1.21-11.32.95-19.56 0-33.61m0 0c-.8-11.9 7.96-17.14 16.8-16.8m-16.8 16.8c2.59-8.84 9.07-21.34 16.8-16.8"/>
  <path fill="none" stroke="#ccc" stroke-linecap="round" stroke-width="2" d="M42 10c97.02 5.85 192.9 4.05 440.11 0M42 10c97.09 2.54 193.07 1.97 440.11 0m0 0c17.65-.56 32.34 12.44 32 32m-32-32c21.01-2.62 28.67 14.67 32 32m0 0c3.61 68.12 4.48 132.57 0 328.17m0-328.17c-1 102.02-2.81 204.17 0 328.17m0 0c2.57 22.28-13.42 31.4-32 32m32-32c-2.92 21.12-11.77 27.72-32 32m0 0c-150.1-1.08-301.41-1.29-440.11 0m440.11 0c-154.04-.73-307.71-.6-440.11 0m0 0c-22.71 3.61-29.77-12.5-32-32m32 32c-25.41-.19-34.42-7.26-32-32m0 0C11.85 253.68 12.66 142.73 10 42m0 328.17C9.03 299.83 9.27 232 10 42m0 0c2.43-18.18 11.03-30.76 32-32M10 42c.87-18.46 11.38-27.47 32-32"/>
  <g fill="none" stroke="#ccc" stroke-linecap="round" stroke-width="4">
    <path d="M258.732 214.389c.29 11.89 2.64 58.4 2.58 69.24m1.8-71.85c.12 11.3-1.92 56.2-3.12 67.76"/>
    <path d="M252.912 256.709c3.1 4.63 2 13.13 5.93 24.06m-5.58-24.5c1.79 7.2 4.66 13.64 7.37 23.45"/>
    <path d="M269.972 257.899c-1.62 4.2-7.45 12.38-11.13 22.87m11.48-23.31c-3.27 6.94-5.44 13.03-9.69 22.26"/>
  </g>
</svg>
