<svg xmlns="http://www.w3.org/2000/svg" width="1048.226" height="824.341" viewBox="0 0 524.113 412.171">
  <path fill="none" stroke="#ccc" stroke-linecap="round" stroke-width="2" d="M42 10c97.02 5.85 192.9 4.05 440.11 0M42 10c97.09 2.54 193.07 1.97 440.11 0m0 0c17.65-.56 32.34 12.44 32 32m-32-32c21.01-2.62 28.67 14.67 32 32m0 0c3.61 68.12 4.48 132.57 0 328.17m0-328.17c-1 102.02-2.81 204.17 0 328.17m0 0c2.57 22.28-13.42 31.4-32 32m32-32c-2.92 21.12-11.77 27.72-32 32m0 0c-150.1-1.08-301.41-1.29-440.11 0m440.11 0c-154.04-.73-307.71-.6-440.11 0m0 0c-22.71 3.61-29.77-12.5-32-32m32 32c-25.41-.19-34.42-7.26-32-32m0 0C11.85 253.68 12.66 142.73 10 42m0 328.17C9.03 299.83 9.27 232 10 42m0 0c2.43-18.18 11.03-30.76 32-32M10 42c.87-18.46 11.38-27.47 32-32"/>
  <path fill="none" stroke="#1e1e1e" stroke-linecap="round" stroke-width="4" d="M46.898 34.852c94.01-3.1 188.56 0 428.92 0m-428.92 0c113.41-3.45 225.56-3.73 428.92 0m0 0c7.04 3.45 13 2.91 14.41 14.41m-14.41-14.41c5.85 1.13 12.83.76 14.41 14.41m0 0c-2.15 7.42-1.27 21.34 0 28.82m0-28.82c-1.7 6.98-.66 14.71 0 28.82m0 0c.24 6.81-6.73 18.19-14.41 14.4m14.41-14.4c-3.5 12.48-3.72 16.15-14.41 14.4m0 0c-153.59-.44-308.17-1.05-428.92 0m428.92 0c-109.85-.9-221.55-2.09-428.92 0m0 0c-6.92-.52-11.47-8.48-14.41-14.4m14.41 14.4c-8.97 3.04-18.43-8.55-14.41-14.4m0 0c-.8-5.59 2.26-19.08 0-28.82m0 28.82c-1.2-5.45 2.13-11.18 0-28.82m0 0c-3.63-7.33 3.82-16.37 14.41-14.41m-14.41 14.41c4.02-14.04 8.6-15.04 14.41-14.41M45.045 121.724c162.46 5.11 321.19 5.19 428.92 0m-428.92 0c170.82 1.64 341.82.48 428.92 0m0 0c7.38-.16 12.62 1.78 14.41 14.41m-14.41-14.41c12.03.47 14.48 5.03 14.41 14.41m0 0c-.94 12.54.47 16.85 0 28.82m0-28.82c-1.39 10.44.79 19.09 0 28.82m0 0c2.7 11.39-5.06 12.82-14.41 14.4m14.41-14.4c1.24 5.08-8.31 13.99-14.41 14.4m0 0c-124.72-5.44-246.21-3.94-428.92 0m428.92 0c-123.46.09-246.26.22-428.92 0m0 0c-12.68-.8-10.67-2.11-14.41-14.4m14.41 14.4c-8.6.24-10.68-1.93-14.41-14.4m0 0c4.11-7.26 1.4-19.12 0-28.82m0 28.82c.65-7.75.54-15.22 0-28.82m0 0c-2.87-12.04 4.06-17.03 14.41-14.41m-14.41 14.41c-2.33-5.57 6.92-14.95 14.41-14.41M46.428 211.772c165.46.83 330.87-1.65 428.92 0m-428.92 0c92.8-2.44 183.64-2.45 428.92 0m0 0c7.76-1.95 14.41 5.17 14.41 14.41m-14.41-14.41c5.96-4 17.89 1.62 14.41 14.41m0 0c2.47 10.26-4.17 13.02 0 28.82m0-28.82c-.96 5.08 1.69 13.51 0 28.82m0 0c-.09 8.36-4.2 17.06-14.41 14.4m14.41-14.4c-2.55 12.57-.57 10.85-14.41 14.4m0 0c-141.46.07-281.18-.6-428.92 0m428.92 0c-126.48-2.53-251.94-2.25-428.92 0m0 0c-11.66 2.94-13.96-4.13-14.41-14.4m14.41 14.4c-13.95 2.14-11.72-3.05-14.41-14.4m0 0c2.3-10.6-1.72-19.8 0-28.82m0 28.82c1.64-8.31 1.3-16.67 0-28.82m0 0c.31-8 1.47-12.54 14.41-14.41m-14.41 14.41c-.73-12.81 1.72-18.63 14.41-14.41"/>
</svg>
