<svg xmlns="http://www.w3.org/2000/svg" width="27" height="27" viewBox="0 0 27 27" fill="none">
  <path d="M13.3333 0C11.5824 0 9.84856 0.344877 8.23089 1.01494C6.61321 1.685 5.14336 2.66713 3.90524 3.90524C1.40476 6.40573 0 9.79711 0 13.3333C0 19.2267 3.82667 24.2267 9.12 26C9.78667 26.1067 10 25.6933 10 25.3333V23.08C6.30667 23.88 5.52 21.2933 5.52 21.2933C4.90667 19.7467 4.04 19.3333 4.04 19.3333C2.82667 18.5067 4.13333 18.5333 4.13333 18.5333C5.46667 18.6267 6.17333 19.9067 6.17333 19.9067C7.33333 21.9333 9.29333 21.3333 10.0533 21.0133C10.1733 20.1467 10.52 19.56 10.8933 19.2267C7.93333 18.8933 4.82667 17.7467 4.82667 12.6667C4.82667 11.1867 5.33333 10 6.2 9.05333C6.06667 8.72 5.6 7.33333 6.33333 5.53333C6.33333 5.53333 7.45333 5.17333 10 6.89333C11.0533 6.6 12.2 6.45333 13.3333 6.45333C14.4667 6.45333 15.6133 6.6 16.6667 6.89333C19.2133 5.17333 20.3333 5.53333 20.3333 5.53333C21.0667 7.33333 20.6 8.72 20.4667 9.05333C21.3333 10 21.84 11.1867 21.84 12.6667C21.84 17.76 18.72 18.88 15.7467 19.2133C16.2267 19.6267 16.6667 20.44 16.6667 21.68V25.3333C16.6667 25.6933 16.88 26.12 17.56 26C22.8533 24.2133 26.6667 19.2267 26.6667 13.3333C26.6667 11.5824 26.3218 9.84856 25.6517 8.23089C24.9817 6.61321 23.9995 5.14336 22.7614 3.90524C21.5233 2.66713 20.0535 1.685 18.4358 1.01494C16.8181 0.344877 15.0843 0 13.3333 0Z" fill="#F5EFD0"/>
</svg>
