<svg xmlns="http://www.w3.org/2000/svg" width="32" height="32" viewBox="0 0 32 32" fill="none">
  <path d="M25.8022 10.1555L20.5238 5.40499C19.0201 4.05156 18.2682 3.37484 17.3455 3.02081L17.3333 6.6668C17.3333 9.80949 17.3333 11.3808 18.3095 12.3571C19.2859 13.3335 20.8573 13.3335 23.9999 13.3335H28.7734C28.2899 12.3945 27.4245 11.6155 25.8022 10.1555Z" fill="#941B0C"/>
  <path fill-rule="evenodd" clip-rule="evenodd" d="M13.3334 29.3334H18.6667C23.695 29.3334 26.2093 29.3334 27.7713 27.7712C29.3334 26.2092 29.3334 23.695 29.3334 18.6667V18.0839C29.3334 16.9202 29.3334 16.0459 29.2766 15.3335H24.0001H23.8735C22.4107 15.3336 21.1181 15.3338 20.0759 15.1936C18.9465 15.0418 17.8171 14.6931 16.8955 13.7714C15.9738 12.8497 15.6251 11.7204 15.4733 10.5909C15.3331 9.54887 15.3333 8.25611 15.3334 6.79331L15.3457 3.01411C15.3461 2.90419 15.3555 2.79547 15.3734 2.6889C14.8286 2.66669 14.1811 2.66669 13.3731 2.66669C8.31834 2.66669 5.79095 2.66669 4.22884 4.22878C2.66675 5.79089 2.66675 8.30503 2.66675 13.3334V18.6667C2.66675 23.695 2.66675 26.2092 4.22884 27.7712C5.79095 29.3334 8.30509 29.3334 13.3334 29.3334ZM10.6495 25.3963C11.0341 25.7568 11.6327 25.7568 12.0174 25.3963L14.6841 22.8963C15.0869 22.5186 15.1074 21.8856 14.7297 21.4827C14.3519 21.0799 13.719 21.0594 13.3161 21.4371L12.3334 22.3584V18C12.3334 17.4478 11.8857 17 11.3334 17C10.7811 17 10.3334 17.4478 10.3334 18V22.3584L9.35069 21.4371C8.94777 21.0594 8.31495 21.0799 7.93721 21.4827C7.55948 21.8856 7.57989 22.5186 7.9828 22.8963L10.6495 25.3963Z" fill="#941B0C"/>
</svg>
