<svg width="241" height="46" viewBox="0 0 241 46" fill="none" xmlns="http://www.w3.org/2000/svg">
<mask id="mask0_1_9" style="mask-type:luminance" maskUnits="userSpaceOnUse" x="0" y="0" width="241" height="46">
<path d="M241 0H0V45.1H241V0Z" fill="white"/>
</mask>
<g mask="url(#mask0_1_9)">
<path fill-rule="evenodd" clip-rule="evenodd" d="M236 14.5C235.5 16.1 234.2 17.4 232 18.5C230.2 19.5 228.1 20.1 225.8 20.2C223.6 20.5 222.2 20.5 221.3 20.2C221 19.3 221.1 17.8 221.7 15.7C222.3 13.6 223.2 11.5 224.3 9.8C225.6 7.8 227 6.5 228.5 6.1C230.3 5.6 232.1 6.3 233.8 8.3C235.8 10.5 236.6 12.6 236 14.5ZM220.8 3.9C221.4 5.4 221.1 7.2 220 9.4C219.1 11.2 217.9 12.9 216.1 14.7C214.6 16.2 213.4 17.2 212.5 17.4C211.7 16.8 211 15.5 210.2 13.5C209.3 11.3 208.8 9.2 208.7 7.1C208.5 4.6 209 2.8 209.9 1.6C211 0.0999986 212.9 -0.400002 215.4 0.199998C218.3 0.799998 220.1 2 220.8 3.9ZM239.1 32.8C237.8 33.8 236 34.1 233.6 33.7C231.6 33.5 229.6 32.8 227.5 31.7C225.6 30.7 224.5 29.8 223.9 29.1C224.1 28.1 225.1 27 226.8 25.6C228.5 24.2 230.4 23.1 232.3 22.3C234.6 21.4 236.4 21.2 237.9 21.7C239.6 22.4 240.7 23.9 240.9 26.5C241.2 29.5 240.6 31.6 239.1 32.8ZM212.5 8.3C212.9 7.8 213.5 7.6 214.4 7.8C215.3 8 216 8.5 216.3 9.2C216.5 9.7 216.4 10.4 216 11.1C215.7 11.7 215.2 12.3 214.6 12.9C214.1 13.4 213.7 13.7 213.4 13.8C213.2 13.6 212.8 13.1 212.6 12.4C212.319 11.7434 212.213 10.9987 212.119 10.3312C212.112 10.2871 212.106 10.2434 212.1 10.2C212 9.4 212.2 8.7 212.5 8.3ZM226.5 13.2C227.2 13 227.8 13.2 228.4 13.9C229.1 14.6 229.3 15.4 229.1 16C228.9 16.6 228.4 17 227.7 17.4C227 17.8 226.3 18 225.5 18.1C224.8 18.2 224.3 18.2 224 18.1C223.9 17.8 223.9 17.3 224.1 16.6C224.3 15.8 224.6 15.1 225 14.5C225.5 13.8 226 13.3 226.5 13.2ZM232.2 26.2C232.9 26.4 233.2 27 233.3 27.9C233.5 28.9 233.2 29.6 232.6 30.1C232.2 30.4 231.5 30.5 230.7 30.4C230 30.3 229.2 30.1 228.5 29.7C227.8 29.4 227.4 29 227.2 28.8C227.4 28.5 227.7 28.1 228.3 27.6C228.8 27.1 229.5 26.7 230.2 26.4C231 26.1 231.7 26 232.2 26.2Z" fill="white"/>
<path d="M1.5 25.1C1.4 24.8 1.4 24.7 1.4 24.5C1.4 24.4 1.5 24.1 1.5 23.9C2.6 23 5.5 21.6 8.8 21.6C9.5 21.6 9.7 21.6 10.5 21.7C14.3 21.9 15.5 24.3 15.5 28.4V30.4C15.5 32.1 15.5 34 15.4 35.7C15.4 36.8 15.3 38.9 15.3 39.7C15.3 39.7 15.2 41.8 16.6 41.6C16.5 42.3 16.5 43.3 16.5 43.6C16.1 44.2 15 44.9 13.6 44.9C12.5 44.9 11.4 44.2 10.8 43.5C10.6 43.7 10.1 44 9.7 44.2C8.6 44.8 7.4 44.9 6.1 44.9C3 44.9 0 42.9 0 38.6C0 32.9 5.3 31.2 8.2 30.9C8.6 30.8 9.1 30.8 9.6 30.8C10 30.8 10.3 30.8 10.7 30.9V28.6C10.7 26.6 10.5 25.6 9 25.6C7.5 25.6 5.7 26.3 4.3 26.8C3.8 27 3.2 27.2 2.6 27.2C1.8 26.3 1.6 25.5 1.5 25.1ZM10.6 37.1V34H10.1L8.6 34.1H8.7C6.7 34.5 4.9 35.4 4.9 38.1C4.9 40.3 5.8 41.1 6.9 41.1H7.2C8.4 41.1 9.9 40.5 10.4 39.7L10.3 39.8C10.3 39.9 10.4 39.5 10.4 39.2C10.6 38.7 10.6 38 10.6 37.1ZM26.8 41.5C26.7 42.2 26.7 43.3 26.7 43.5C26.2 44.2 25.2 44.8 23.8 44.8C23.1 44.8 22.4 44.5 21.9 44.1C21 43.5 20.5 42.6 20.5 41.6V17.6C20.5 15.3 20.4 13.8 20.4 12.4C21 11.1 22.7 10.9 25 10.9C25.3 12 25.3 13.1 25.3 15.5V39.6C25.4 39.7 25.3 41.8 26.8 41.5ZM38.4 21.6C41.4 21.8 42.8 23.1 43 23.7C43 24.3 42.6 25.4 42.1 26.1L41.2 25.9C40.7 25.8 40.1 25.7 39.7 25.5C39 25.2 38.3 25.1 37.6 25.1C35.9 25.1 34.9 26 34.9 27.3C34.9 28 35.2 28.7 36.2 29.5C36.7 29.9 37.4 30.4 38.2 30.9C39.1 31.6 40.1 32.3 40.9 32.9C42.9 34.6 43.8 36.2 43.8 38.2C43.8 42.7 40.2 44.9 35.6 44.9C32.6 44.9 29.9 44 29.4 42.6C29.4 41.9 29.8 40.8 30.3 40.1H30.8C31.2 40.1 31.7 40.2 32.2 40.5V40.4C33.2 40.8 34.4 41.1 35.5 41.1C35.7 41.1 36.1 41 36.4 41C37.8 40.9 38.7 39.9 38.7 38.5C38.7 37.4 38.2 36.6 36.9 35.7C36.7 35.6 36.2 35.2 36.3 35.3C35.2 34.6 34 33.6 33.1 32.8L31.8 32C30.3 30.5 29.6 29.1 29.6 27.4C29.6 23.7 32.6 21.5 37.1 21.5C37.5 21.5 38.1 21.6 38.4 21.6ZM47.3 25.1C47.2 24.8 47.2 24.7 47.2 24.5C47.2 24.4 47.3 24.1 47.3 23.9C48.4 23 51.3 21.6 54.6 21.6C55.3 21.6 55.5 21.6 56.3 21.7C60.1 21.9 61.3 24.3 61.3 28.4V30.4C61.3 32.1 61.3 34 61.2 35.7C61.2 36.8 61.1 38.9 61.1 39.7C61.1 39.7 61 41.8 62.4 41.6C62.3 42.3 62.3 43.3 62.3 43.6C61.9 44.2 60.8 44.9 59.4 44.9C58.3 44.9 57.2 44.2 56.6 43.5C56.4 43.7 55.9 44 55.5 44.2C54.4 44.8 53.2 44.9 51.9 44.9C48.7 44.9 45.7 42.9 45.7 38.5C45.7 32.8 51 31.1 53.9 30.8C54.3 30.7 54.8 30.7 55.3 30.7C55.7 30.7 56 30.7 56.4 30.8V28.5C56.4 26.5 56.2 25.5 54.7 25.5C53.2 25.5 51.4 26.2 50 26.7C49.5 26.9 48.9 27.1 48.3 27.1C47.5 26.3 47.4 25.5 47.3 25.1ZM56.4 37.1V34H55.9L54.4 34.1H54.5C52.5 34.5 50.7 35.4 50.7 38.1C50.7 40.3 51.6 41.1 52.7 41.1H53C54.2 41.1 55.7 40.5 56.2 39.7L56.1 39.8C56.1 39.9 56.2 39.5 56.2 39.2C56.4 38.7 56.4 38 56.4 37.1Z" fill="white"/>
<path d="M80.8 23.6C80.8 24.2 80.5 25.3 80.1 26.1H79.5C79 26.1 78.5 26 78 25.8C77.3 25.5 76.3 25.2 75.5 25.2C75.4 25.2 75.2 25.2 75 25.3C72.3 25.5 70.4 28 70.4 33.4C70.4 39.9 73.1 41.3 75.8 41.3C77.3 41.3 78.9 40.8 80.1 40.2C80.3 40.9 80.5 41.7 80.5 42C80.4 42.7 79.9 43.5 79.3 44C78.4 44.7 76.8 45.1 74.9 45.1C69.7 45.1 65.1 43.2 65.1 33.7C65.1 28.8 66.8 25.7 68.6 23.9C70.5 22.2 72.9 21.6 75.3 21.6C78.3 21.5 80.6 22.9 80.8 23.6ZM89.1 27.1V42C89.1 42.7 89 43.3 88.6 43.9C87.9 44.5 87.1 44.5 84.1 44.5C84.2 42 84.2 38.8 84.2 35.2L84.3 27.3C84.3 25.8 84 24.7 83.7 23.8C84.1 23.4 84.7 23.1 85.7 22.6C86 22.5 86.2 22.5 86.4 22.5C87.4 22.5 87.8 22.8 88.1 23.4C89 22.8 90 22.3 90.9 22C91.7 21.7 92.8 21.5 93.6 21.6C95 21.7 95.8 22.2 95.9 22.9C95.9 23.6 95.7 24.9 95 25.9C94.7 26 94.7 26 94.3 26C93.8 26 93.3 25.9 92.9 25.9C92.6 25.8 92.4 25.8 92.3 25.8C91 25.9 90 26.2 89.1 27.1ZM113 39.7C113.3 40.6 113.4 41.6 113.5 42C113.4 43 111.9 44 110.5 44.5H110.6C109.9 44.7 108.4 45 107 45C104.7 45 102.2 44.6 100.4 42.7C98.7 40.9 97.8 37.9 97.8 34.1C97.8 24.9 101.8 21.6 107.1 21.6C111.6 21.6 113.9 24.3 114.3 28.3C114.4 29 114.4 29.8 114.4 30.6C114.4 31.7 114.3 32.6 114.2 33.4C113.6 33.9 111.9 34.5 110.6 34.7C109.1 34.9 106.8 35 104.5 35C103.8 35 103.6 35.1 102.8 35C102.9 39.7 104.8 41.2 107.8 41.2C109.4 41 111.2 40.7 113 39.7ZM106.2 25C104.5 25.2 102.9 27.2 102.6 31.4H103.9C105.6 31.4 107.5 31.3 108.4 31.3L109.1 31.1C109.2 30.8 109.3 30.2 109.3 29.7L109.2 29.2V28.7C109 26.2 108.1 25 106.4 25H106.2ZM117.9 25.1C117.8 24.8 117.8 24.7 117.8 24.5C117.8 24.4 117.9 24.1 117.9 23.9C119 23 121.9 21.6 125.2 21.6C125.9 21.6 126.1 21.6 126.9 21.7C130.7 21.9 131.9 24.3 131.9 28.4V30.4C131.9 32.1 131.9 34 131.8 35.7C131.8 36.8 131.7 38.9 131.7 39.7C131.7 39.7 131.6 41.8 133 41.6C132.9 42.3 132.9 43.3 132.9 43.6C132.5 44.2 131.4 44.9 130 44.9C128.9 44.9 127.8 44.2 127.2 43.5C127 43.7 126.5 44 126.1 44.2C125 44.8 123.8 44.9 122.5 44.9C119.3 44.9 116.3 42.9 116.3 38.5C116.3 32.8 121.6 31.1 124.5 30.8C124.9 30.7 125.4 30.7 125.9 30.7C126.4 30.7 126.6 30.7 127 30.8V28.5C127 26.5 126.8 25.5 125.3 25.5C123.8 25.5 122 26.2 120.6 26.7C120.1 26.9 119.5 27.1 118.9 27.1C118.2 26.3 118 25.5 117.9 25.1ZM127 37.1V34H126.5L125 34.1H125.1C123.1 34.5 121.3 35.4 121.3 38.1C121.3 40.3 122.2 41.1 123.3 41.1H123.6C124.8 41.1 126.3 40.5 126.8 39.7L126.7 39.8C126.7 39.9 126.8 39.5 126.8 39.2C127 38.7 127 38 127 37.1ZM148.6 40.5C148.7 40.8 148.7 41.2 148.7 41.6C148.7 42 148.7 42.5 148.6 42.9C148.5 43.2 148.3 43.5 147.9 43.8C146.8 44.5 145.1 44.9 143.5 44.9C138.8 44.9 137.9 40.7 137.9 36.9V25.8C136.6 25.7 135.8 25.5 135.1 25.1C135.1 23.7 135.2 23.7 135.5 23.4C136.2 22.9 136.9 22.7 137.5 22.5L138.2 22.4C138.3 21.1 138.4 19.6 138.4 18.3C138.8 17.2 140 16.3 142.9 16.1V16.8C142.8 18.8 142.8 20.3 142.8 22.1H148.8C148.7 24.8 148.3 25.3 147.3 25.6C147 25.7 146.5 25.7 146.1 25.7C145.2 25.8 144.5 25.8 142.8 25.8C142.7 27.8 142.7 29.9 142.7 31.9C142.7 33 142.8 33.9 142.8 34.9V37.1C143 39.6 143.3 41.3 144.8 41.3C145.4 41.4 147.3 40.7 147.6 40.4L148.6 40.5ZM154.9 11.5C157.1 11.5 157.6 12.4 157.5 14.2C157.4 16 156.9 17.2 154.7 17.2C152.8 17.2 152 16.3 152 14.3C152 12.5 153 11.5 154.9 11.5ZM156.8 22.1C157.2 22.8 157.2 23.5 157.2 25.5V41.3C157.2 42.4 157 43.2 156.5 43.9C156.2 44.4 155.4 44.4 152.1 44.5V40.7C152.1 39.3 152.2 37.9 152.2 36.4V28.2C152.2 26.1 152.1 24.6 152.1 23.4C152.7 22.2 154.3 22.1 156.4 22.1H156.8ZM170.4 44.9C164.4 44.9 161 41.4 161 33.2C161 25.1 165 21.4 170.5 21.4C176.7 21.4 179.8 25.4 179.8 32.9C179.8 40.9 175.8 44.9 170.4 44.9ZM170.5 41.5C172.7 41.5 174.6 39.4 174.6 33.2C174.6 27.3 172.9 25.1 170.4 25.1C168.2 25.1 166.2 27.3 166.2 33.1C166.2 39.4 168 41.5 170.5 41.5ZM188.5 27.3L188.6 27.2V41.7C188.6 42.8 188.5 43.3 188 44C187.3 44.6 186.8 44.6 184.7 44.6H183.5C183.6 42.1 183.6 38.9 183.6 35.3V27.4C183.6 25.9 183.4 24.8 183.1 23.9C183.4 23.5 184 23.2 185.1 22.7C185.4 22.6 185.7 22.6 185.8 22.6C186.7 22.6 187.2 23 187.5 23.6C188.4 22.9 189.4 22.5 190.3 22.2C191.3 21.9 192.2 21.7 193.3 21.7C199.2 21.7 200.3 24.7 200.3 30V37C200.3 39.5 200.4 41.8 200.4 43.7C199.8 44.3 198.9 44.4 195.8 44.4C195.4 43.7 195.3 43 195.3 42.3V30C195.3 26.6 194.5 25.4 192.1 25.4C190.7 25.4 189.4 26.2 188.5 27.3ZM213.2 21.6C216.2 21.8 217.6 23.1 217.8 23.7C217.8 24.3 217.4 25.4 216.9 26.1L216 25.9C215.5 25.8 214.9 25.7 214.5 25.5C213.8 25.2 213.1 25.1 212.4 25.1C210.7 25.1 209.7 26 209.7 27.3C209.7 28 210 28.7 211 29.5C211.5 29.9 212.2 30.4 213 30.9C213.9 31.6 214.9 32.3 215.7 32.9C217.7 34.6 218.6 36.2 218.6 38.2C218.6 42.7 215 44.9 210.4 44.9C207.4 44.9 204.7 44 204.2 42.6C204.2 41.9 204.6 40.8 205.1 40.1H205.6C206 40.1 206.5 40.2 207 40.5V40.4C208 40.8 209.2 41.1 210.3 41.1C210.5 41.1 210.9 41 211.2 41C212.6 40.9 213.5 39.9 213.5 38.5C213.5 37.4 213 36.6 211.7 35.7C211.5 35.6 211 35.2 211.1 35.3C210 34.6 208.8 33.6 207.9 32.8L206.7 31.9C205.2 30.4 204.5 29 204.5 27.3C204.5 23.6 207.5 21.4 212 21.4C212.4 21.5 212.9 21.6 213.2 21.6ZM103.1 18.2C103.1 18.2 103.6 15 105 13.1C106.5 11 108.9 9.8 110.5 11.8C111.7 13.2 111.4 14.7 108.9 16.3C105.8 18.2 103.1 18.2 103.1 18.2Z" fill="white"/>
</g>
</svg>
