<svg width="362" height="379" viewBox="0 0 362 379" xmlns="http://www.w3.org/2000/svg"><g fill="none"><path d="M361.5 271.5v-8.4c0-28.6-11.3-54.6-29.7-73.8a106.3 106.3 0 0 0 29.7-73.7v-8.5A106.6 106.6 0 0 0 255.1.5h-65.8C139 .5 91.6 20.1 56 55.8 20.4 91.5.8 138.8.8 189.3S20.4 287.2 56 322.8c35.6 35.7 83 55.3 133.3 55.3h65.8c58.6 0 106.4-47.8 106.4-106.6zM255.1 66.2a41 41 0 0 1 40.8 40.9v8.5a41 41 0 0 1-78.6 15.5l-26.7-65h64.5zM66.4 189.3c0-45 24.2-84.4 60.3-106l30 72.9a106.8 106.8 0 0 0 21.4 33.1c-9 9.4-16.3 20.6-21.5 33.2l-29.9 72.8a123.2 123.2 0 0 1-60.3-106zm124.1 123.2l26.7-65a41 41 0 0 1 78.6 15.6v8.4a41 41 0 0 1-40.8 41h-64.5z" fill="#C34E0A"/><path d="M1.5 203.5A184.5 184.5 0 0 1 56 55.3 188.3 188.3 0 0 1 189.3.4h65.8a106 106 0 0 1 106.4 105.5v8.4c0 4-.2 8-.7 12-6-52.5-51.2-93.3-105.7-93.3h-65.8C139 33 91.6 52.4 56 87.6 24.3 119 5.3 159.6 1.5 203.4z" fill="#AD3D03"/><path d="M306 191.4h-8.1c-3.4 0-6.1-2.8-6.1-6.2a6.1 6.1 0 0 1 6-6.1h8.2c3.4 0 6 2.7 6 6.1 0 3.4-2.6 6.2-6 6.2zm38.6 76a6.1 6.1 0 0 0-6.1-6.2h-8.1a6.15 6.15 0 0 0 0 12.3h8.1c3.4 0 6-2.8 6-6.2zm-162.5 73.8V333a6.1 6.1 0 0 0-6.1-6.1c-3.4 0-6.1 2.7-6.1 6.1v8.2c0 3.4 2.7 6.2 6 6.2 3.4 0 6.2-2.8 6.2-6.2zm22.4-116.4a6.2 6.2 0 0 0 0-8.7 6 6 0 0 0-8.6 0l-5.7 5.8a6.2 6.2 0 0 0 0 8.7 6 6 0 0 0 8.6 0l5.7-5.8zm119.6 82.1a6.2 6.2 0 0 0 0-8.7 6 6 0 0 0-8.6 0l-5.8 5.8a6.2 6.2 0 0 0 0 8.7 6 6 0 0 0 8.6 0l5.8-5.8zm-79 46.9l5.8-5.8a6.2 6.2 0 0 0 0-8.7 6 6 0 0 0-8.6 0l-5.7 5.8a6.2 6.2 0 0 0 0 8.7 6 6 0 0 0 8.6 0zm99.6-250.7a6.1 6.1 0 0 0-6.1-6.2h-8.1c-3.4 0-6.1 2.8-6.1 6.2 0 3.4 2.7 6.2 6 6.2h8.1c3.4 0 6-2.8 6-6.2zm-146.3 32.8a6.1 6.1 0 0 0-6-6.1h-8.2a6.15 6.15 0 0 0 0 12.3h8.1c3.4 0 6.1-2.8 6.1-6.2zm93.4-94.4v-8.2a6.1 6.1 0 0 0-6.1-6.1c-3.4 0-6.1 2.7-6.1 6.1v8.2c0 3.4 2.7 6.2 6 6.2 3.4 0 6.2-2.8 6.2-6.2zm-61 135.5v-8.2a6.1 6.1 0 0 0-6-6.2c-3.4 0-6.2 2.8-6.2 6.2v8.2c0 3.4 2.8 6.2 6.1 6.2 3.4 0 6.1-2.8 6.1-6.2zm101.5-31.4l-5.7-5.8a6 6 0 0 0-8.7 0 6.2 6.2 0 0 0 0 8.7l5.8 5.8a6 6 0 0 0 8.6 0 6.2 6.2 0 0 0 0-8.7zm-97.5-115l-5.8-5.8a6 6 0 0 0-8.6 0 6.2 6.2 0 0 0 0 8.8l5.8 5.8a6 6 0 0 0 8.6 0 6.2 6.2 0 0 0 0-8.7z" fill="#D46E16"/></g></svg>