<svg xmlns="http://www.w3.org/2000/svg" width="89" height="18" viewBox="0 0 89 18">
  <g fill="none" fill-rule="evenodd">
    <g fill-rule="nonzero">
      <path fill="#FFF" d="M16.5 12.5v-.3c0-1.3-.5-2.4-1.3-3.3.8-.8 1.3-2 1.3-3.3v-.4A4.7 4.7 0 0 0 11.8.5H8.9A8.4 8.4 0 0 0 .6 8.9a8.4 8.4 0 0 0 8.3 8.4h3c2.5 0 4.6-2.1 4.6-4.7zm-4.7-9c1 0 1.8.7 1.8 1.7v.4a1.8 1.8 0 0 1-3.5.7L9 3.5h2.8zM3.5 8.8c0-2 1-3.8 2.7-4.7l1.3 3.3c.2.6.5 1 1 1.5-.5.4-.8 1-1 1.5l-1.3 3.2a5.5 5.5 0 0 1-2.7-4.7zM9 14.5l1.1-3a1.8 1.8 0 0 1 3.5.8v.4c0 1-.8 1.8-1.8 1.8H9z"/>
      <path fill="#F7A941" d="M14.1 9h-.4c-.2 0-.3-.1-.3-.3a.3.3 0 0 1 .3-.3h.4l.2.3c0 .2-.1.3-.2.3zm1.7 3.4c0-.2-.2-.3-.3-.3h-.4c-.1 0-.2.1-.2.3 0 .1 0 .3.2.3h.4l.3-.3zm-7.3 3.3v-.4c0-.1-.1-.3-.3-.3l-.2.3v.4c0 .1 0 .2.2.2s.3 0 .3-.2zm1-5.2a.3.3 0 0 0 0-.4c-.1-.1-.3-.1-.4 0l-.2.3a.3.3 0 0 0 0 .3c0 .2.2.2.3 0l.3-.2zm5.3 3.6a.3.3 0 0 0 0-.3c-.1-.2-.3-.2-.4 0l-.3.2a.3.3 0 0 0 0 .4c.1.1.3.1.4 0l.3-.3zm-3.5 2.1.2-.2a.3.3 0 0 0 0-.4h-.3l-.3.2a.3.3 0 0 0 0 .4c.1.1.3.1.4 0zm4.5-11.1c0-.2-.2-.3-.3-.3h-.4c-.1 0-.2.1-.2.3 0 .1 0 .2.2.2h.4c.1 0 .3 0 .3-.2zM9.3 6.5c0-.1-.1-.2-.3-.2h-.3c-.2 0-.3 0-.3.2s.1.3.3.3H9c.2 0 .3-.1.3-.3zm4.2-4.2V2c0-.2 0-.3-.2-.3s-.3.1-.3.3v.3c0 .2.1.3.3.3.1 0 .2-.1.2-.3zm-2.7 6V8c0-.2 0-.3-.2-.3s-.3.1-.3.3v.4c0 .1.1.2.3.2.1 0 .2 0 .2-.2zm4.4-1.2-.2-.3c-.1-.1-.3-.1-.4 0a.3.3 0 0 0 0 .4l.2.2c.1.2.3.2.4 0a.3.3 0 0 0 0-.3zm-4.3-5.3-.2-.2c-.1-.1-.3-.1-.4 0a.3.3 0 0 0 0 .4l.2.2c.1.1.3.1.4 0a.3.3 0 0 0 0-.4z"/>
    </g>
    <path fill="#FFF" d="M28 12.6c.4.3 1 .5 1.5.5V17a7.5 7.5 0 0 1-5.3-2.3 6.2 6.2 0 0 1-1.5-2.3h-.5V16h-4L18 2c.5-.3 1.2-.5 2-.7l2.7-.2c1.5 0 2.7.2 3.8.7 1 .5 1.8 1 2.3 1.9.5.8.8 1.8.8 2.8a5.4 5.4 0 0 1-2.7 4.8c.2.5.6 1 1 1.2zm-5.9-4h.8c.4 0 .9 0 1.3-.2.4-.1.7-.4 1-.7a1.8 1.8 0 0 0 .1-2 2 2 0 0 0-1.8-1 3.6 3.6 0 0 0-1.4.4v3.4zm19 3.5V16l-10.6.2L30 1.3 40.6 1l.3 4h-6.8v1.5H40l.2 3.9h-5.7l.1 2 6.7-.3zm9-7v11.1l-4 .2V5.2h-4.3l-.3-3.9L54.3 1l.3 4H50zm16.4 0-5.8 7.4h5.6v3.9H55v-3.8L60.7 5h-5.2V1.3h11V5zm11.6 7V16l-10.7.2L67 1.3 77.6 1l.3 4H71l.1 1.5h5.7l.2 3.9h-5.6v2l6.7-.3zm9.9.3v3.9h-9.5v-15h4v11H88z"/>
  </g>
</svg>
