<svg width="42" height="46" viewBox="0 0 42 46" xmlns="http://www.w3.org/2000/svg"><title>002-download</title><path d="M13.374 18.904a1.313 1.313 0 0 0 0 1.834l6.733 6.878c.244.25.573.384.893.384.32 0 .649-.125.893-.384l6.733-6.878a1.313 1.313 0 0 0 0-1.834 1.247 1.247 0 0 0-1.796 0l-4.56 4.658V1.297A1.28 1.28 0 0 0 21 0c-.705 0-1.27.576-1.27 1.297v22.265l-4.56-4.658a1.247 1.247 0 0 0-1.796 0z"/><path d="M41.953 29.444L37.49 13.042a1.315 1.315 0 0 0-.703-.84l-.123-.057a1.289 1.289 0 0 0-.532-.116h-8.041c-.712 0-1.282.579-1.282 1.302 0 .724.57 1.303 1.282 1.303h7.177l3.769 13.874H29.07c-.712 0-1.282.579-1.282 1.302v1.178c0 1.727-1.377 3.126-3.076 3.126h-7.823c-1.7 0-3.076-1.4-3.076-3.126V29.81c0-.723-.57-1.302-1.281-1.302h-9.58l3.789-13.903h7.177c.712 0 1.281-.579 1.281-1.303 0-.723-.57-1.302-1.281-1.302h-8.05c-.181 0-.362.039-.533.116l-.123.058a1.288 1.288 0 0 0-.703.84l-4.462 16.4a1.457 1.457 0 0 0-.047.348v6.84C0 41.785 4.149 46 9.247 46h23.506C37.851 46 42 41.784 42 36.603V29.79c0-.125-.01-.241-.047-.347zm-2.516 7.159c0 3.743-3 6.792-6.684 6.792H9.247c-3.684 0-6.684-3.049-6.684-6.792v-5.49h8.706c.066 3.097 2.573 5.596 5.64 5.596h7.822c3.066 0 5.573-2.499 5.64-5.596h9.085v5.49h-.02z"/></svg>